<svg xmlns="http://www.w3.org/2000/svg" xmlns:xlink="http://www.w3.org/1999/xlink" width="100" zoomAndPan="magnify" viewBox="0 0 75 74.999997" height="100" preserveAspectRatio="xMidYMid meet" version="1.0"><defs><g/><clipPath id="8315beb999"><path d="M 18 50 L 26 50 L 26 56.6875 L 18 56.6875 Z M 18 50 " clip-rule="nonzero"/></clipPath><clipPath id="b116bf6735"><path d="M 10 38 L 29 38 L 29 56.6875 L 10 56.6875 Z M 10 38 " clip-rule="nonzero"/></clipPath><clipPath id="f7fcdb3bf4"><path d="M 5.796875 13.9375 L 31.296875 13.9375 L 31.296875 40 L 5.796875 40 Z M 5.796875 13.9375 " clip-rule="nonzero"/></clipPath></defs><rect x="-7.5" width="90" fill="#ffffff" y="-7.5" height="89.999996" fill-opacity="1"/><rect x="-7.5" width="90" fill="#ffffff" y="-7.5" height="89.999996" fill-opacity="1"/><g clip-path="url(#8315beb999)"><path fill="#b721ff" d="M 20.28125 50.175781 C 20.230469 50.128906 20.175781 50.082031 20.117188 50.027344 C 19.640625 50.527344 19.179688 51.011719 18.714844 51.5 C 18.753906 51.542969 18.773438 51.578125 18.800781 51.605469 C 20.433594 53.324219 22.070312 55.046875 23.699219 56.769531 C 23.832031 56.90625 23.984375 56.953125 24.15625 56.898438 C 24.832031 56.699219 25.28125 56.253906 25.527344 55.597656 C 25.617188 55.359375 25.550781 55.171875 25.359375 54.988281 C 23.660156 53.390625 21.972656 51.78125 20.28125 50.175781 " fill-opacity="1" fill-rule="nonzero"/></g><path fill="#b721ff" d="M 13.539062 46.273438 C 13.664062 46.214844 13.722656 46.25 13.808594 46.335938 C 14.558594 47.136719 15.316406 47.933594 16.074219 48.730469 C 16.121094 48.785156 16.152344 48.851562 16.195312 48.921875 C 16.6875 48.457031 17.125 48.039062 17.578125 47.609375 C 17.5 47.539062 17.4375 47.480469 17.375 47.417969 C 16.582031 46.667969 15.792969 45.914062 14.996094 45.164062 C 14.925781 45.097656 14.875 45.046875 14.933594 44.929688 C 15.433594 43.921875 15.277344 42.957031 14.707031 42.03125 C 14.15625 41.136719 13.335938 40.539062 12.417969 40.070312 C 11.652344 39.683594 10.855469 39.414062 9.976562 39.457031 C 9.847656 39.464844 9.726562 39.484375 9.613281 39.507812 C 9.589844 39.511719 9.570312 39.519531 9.546875 39.523438 C 9.472656 39.542969 9.398438 39.566406 9.332031 39.589844 C 9.265625 39.617188 9.203125 39.644531 9.140625 39.675781 C 9.121094 39.683594 9.101562 39.691406 9.085938 39.703125 C 9.007812 39.746094 8.933594 39.796875 8.859375 39.851562 C 8.792969 39.90625 8.730469 39.964844 8.671875 40.027344 C 8.660156 40.039062 8.648438 40.050781 8.640625 40.0625 C 8.609375 40.097656 8.582031 40.136719 8.550781 40.175781 C 8.03125 40.90625 8.183594 41.929688 8.183594 41.929688 C 8.292969 42.722656 8.597656 43.449219 9.003906 44.132812 C 9.539062 45.035156 10.207031 45.808594 11.191406 46.246094 C 11.96875 46.59375 12.753906 46.644531 13.539062 46.273438 " fill-opacity="1" fill-rule="nonzero"/><g clip-path="url(#b116bf6735)"><path fill="#b721ff" d="M 27.347656 42.214844 C 26.707031 42.828125 26.070312 43.441406 25.429688 44.054688 C 25.183594 44.289062 24.910156 44.25 24.769531 43.964844 C 24.675781 43.769531 24.78125 43.628906 24.898438 43.496094 C 25.53125 42.75 26.167969 42.003906 26.800781 41.261719 C 27.0625 40.957031 27.320312 40.652344 27.558594 40.371094 C 27.378906 40.175781 27.21875 40.003906 27.046875 39.816406 C 26.507812 40.277344 25.96875 40.734375 25.433594 41.1875 C 24.910156 41.636719 24.382812 42.085938 23.855469 42.53125 C 23.652344 42.707031 23.476562 42.699219 23.308594 42.53125 C 23.128906 42.347656 23.144531 42.167969 23.363281 41.9375 C 24.25 41.011719 25.136719 40.089844 26.023438 39.164062 C 26.070312 39.113281 26.113281 39.0625 26.160156 39.007812 C 25.75 38.679688 25.332031 38.660156 24.910156 38.921875 C 24.675781 39.070312 24.4375 39.230469 24.234375 39.417969 C 23.546875 40.058594 22.871094 40.710938 22.203125 41.367188 C 22.023438 41.546875 21.855469 41.746094 21.71875 41.957031 C 21.109375 42.875 20.90625 43.84375 21.421875 44.875 C 21.488281 45.007812 21.429688 45.0625 21.34375 45.140625 C 17.871094 48.433594 14.402344 51.730469 10.925781 55.023438 C 10.757812 55.179688 10.714844 55.355469 10.777344 55.546875 C 11 56.210938 11.433594 56.671875 12.109375 56.882812 C 12.335938 56.957031 12.503906 56.894531 12.664062 56.722656 C 15.964844 53.234375 19.273438 49.753906 22.574219 46.269531 C 22.65625 46.179688 22.722656 46.15625 22.84375 46.207031 C 23.320312 46.414062 23.816406 46.441406 24.324219 46.347656 C 25.046875 46.210938 25.644531 45.84375 26.15625 45.332031 C 26.683594 44.804688 27.207031 44.277344 27.710938 43.730469 C 28.132812 43.273438 28.558594 42.8125 28.75 42.195312 C 28.867188 41.667969 28.421875 41.191406 28.421875 41.191406 C 28.03125 41.558594 27.691406 41.886719 27.347656 42.214844 " fill-opacity="1" fill-rule="nonzero"/></g><g clip-path="url(#f7fcdb3bf4)"><path fill="#b721ff" d="M 11.59375 24.355469 C 11.695312 23.480469 11.996094 22.6875 12.589844 22.027344 C 13.578125 20.925781 14.816406 20.53125 16.265625 20.839844 C 17.023438 21 17.632812 21.429688 18.148438 22 C 18.257812 22.121094 18.359375 22.253906 18.476562 22.390625 C 18.53125 22.316406 18.582031 22.25 18.636719 22.183594 C 18.691406 22.113281 18.753906 22.046875 18.8125 21.980469 C 19.75 20.972656 20.890625 20.550781 22.253906 20.808594 C 23.789062 21.097656 24.886719 22.289062 25.242188 23.757812 C 25.273438 23.898438 25.296875 24.035156 25.324219 24.171875 C 25.417969 24.875 25.4375 26.378906 24.253906 27.9375 C 23.589844 28.816406 22.78125 29.558594 21.953125 30.28125 C 20.992188 31.121094 20.023438 31.949219 19.054688 32.785156 C 18.683594 33.101562 18.273438 33.113281 17.910156 32.800781 C 16.648438 31.707031 15.386719 30.617188 14.140625 29.507812 C 13.46875 28.910156 12.859375 28.246094 12.371094 27.484375 C 11.355469 25.902344 11.59375 24.355469 11.59375 24.355469 Z M 18.464844 39.101562 C 25.414062 39.101562 31.050781 33.46875 31.050781 26.519531 C 31.050781 19.570312 25.414062 13.9375 18.464844 13.9375 C 11.515625 13.9375 5.882812 19.570312 5.882812 26.519531 C 5.882812 33.46875 11.515625 39.101562 18.464844 39.101562 " fill-opacity="1" fill-rule="nonzero"/></g><g fill="#21d4fd" fill-opacity="1"><g transform="translate(29.14492, 37.694575)"><g><path d="M 7.265625 -6.21875 C 7.417969 -6.21875 7.574219 -6.285156 7.730469 -6.285156 C 7.746094 -6.285156 7.761719 -6.285156 7.78125 -6.285156 C 7.796875 -6.285156 7.832031 -6.304688 7.847656 -6.320312 C 7.953125 -6.371094 8.089844 -6.390625 8.210938 -6.421875 C 8.414062 -6.492188 8.605469 -6.578125 8.792969 -6.664062 C 8.8125 -6.664062 8.8125 -6.699219 8.828125 -6.714844 C 8.8125 -6.714844 8.792969 -6.734375 8.777344 -6.734375 C 8.605469 -6.664062 7.796875 -6.492188 7.589844 -6.492188 C 7.351562 -6.476562 7.109375 -6.421875 6.871094 -6.421875 C 6.820312 -6.421875 6.765625 -6.421875 6.714844 -6.421875 C 6.421875 -6.335938 6.113281 -6.355469 5.804688 -6.335938 C 5.769531 -6.335938 5.738281 -6.335938 5.703125 -6.320312 C 5.617188 -6.285156 5.511719 -6.285156 5.425781 -6.285156 C 5.375 -6.285156 5.324219 -6.285156 5.289062 -6.285156 C 5.238281 -6.285156 5.203125 -6.285156 5.152344 -6.269531 C 4.894531 -6.21875 4.636719 -6.21875 4.378906 -6.21875 C 4.34375 -6.21875 4.3125 -6.21875 4.277344 -6.21875 C 4.226562 -6.21875 4.191406 -6.21875 4.15625 -6.199219 C 4.019531 -6.148438 3.863281 -6.164062 3.726562 -6.148438 C 3.691406 -6.148438 3.640625 -6.148438 3.605469 -6.148438 C 3.46875 -6.148438 3.332031 -6.148438 3.195312 -6.148438 C 3.039062 -6.148438 2.902344 -6.148438 2.746094 -6.097656 C 2.695312 -6.078125 2.644531 -6.132812 2.644531 -6.199219 C 2.664062 -6.269531 2.664062 -6.335938 2.679688 -6.390625 C 2.714844 -6.527344 2.765625 -6.648438 2.78125 -6.765625 C 2.816406 -7.109375 3.230469 -8.878906 3.347656 -9.136719 C 3.417969 -9.273438 3.453125 -9.429688 3.453125 -9.582031 C 3.433594 -9.753906 3.519531 -9.910156 3.554688 -10.066406 C 3.574219 -10.132812 3.625 -10.167969 3.691406 -10.183594 C 3.984375 -10.269531 4.277344 -10.355469 4.570312 -10.441406 C 4.84375 -10.527344 5.101562 -10.632812 5.375 -10.699219 C 5.753906 -10.804688 6.148438 -10.871094 6.527344 -10.957031 C 6.679688 -11.007812 6.851562 -11.042969 7.042969 -11.042969 C 7.09375 -11.042969 7.144531 -11.042969 7.195312 -11.0625 C 7.367188 -11.148438 7.453125 -11.164062 7.644531 -11.164062 C 7.695312 -11.164062 7.761719 -11.199219 7.832031 -11.214844 C 7.953125 -11.25 8.070312 -11.316406 8.210938 -11.316406 C 8.226562 -11.316406 8.261719 -11.371094 8.242188 -11.386719 C 8.226562 -11.402344 8.191406 -11.421875 8.191406 -11.421875 C 8.089844 -11.371094 8.003906 -11.371094 7.902344 -11.371094 C 7.796875 -11.386719 7.710938 -11.300781 7.609375 -11.300781 C 7.574219 -11.300781 7.523438 -11.300781 7.488281 -11.300781 C 7.4375 -11.300781 7.402344 -11.300781 7.351562 -11.316406 C 7.386719 -11.386719 7.417969 -11.421875 7.472656 -11.421875 C 7.539062 -11.421875 7.589844 -11.421875 7.644531 -11.421875 C 7.710938 -11.421875 7.761719 -11.421875 7.796875 -11.4375 C 7.847656 -11.472656 8.363281 -11.558594 8.46875 -11.558594 C 8.519531 -11.558594 8.585938 -11.558594 8.65625 -11.558594 C 8.691406 -11.558594 8.707031 -11.558594 8.742188 -11.558594 C 8.757812 -11.574219 8.777344 -11.574219 8.8125 -11.574219 C 8.828125 -11.574219 8.84375 -11.574219 8.863281 -11.574219 C 8.984375 -11.628906 9.101562 -11.628906 9.222656 -11.628906 C 9.292969 -11.628906 9.359375 -11.628906 9.410156 -11.644531 C 9.53125 -11.695312 9.636719 -11.679688 9.738281 -11.695312 C 9.839844 -11.695312 9.960938 -11.746094 10.066406 -11.746094 C 10.304688 -11.746094 10.511719 -11.832031 10.75 -11.832031 C 10.769531 -11.832031 10.785156 -11.832031 10.804688 -11.832031 C 10.785156 -11.917969 10.75 -11.953125 10.699219 -11.953125 C 10.613281 -11.953125 10.511719 -11.972656 10.425781 -11.972656 C 10.320312 -11.972656 10.234375 -11.953125 10.132812 -11.917969 C 9.894531 -11.902344 8.484375 -11.816406 8.347656 -11.765625 C 8.328125 -11.765625 8.3125 -11.765625 8.296875 -11.765625 C 8.261719 -11.765625 8.226562 -11.765625 8.191406 -11.765625 C 8.125 -11.765625 8.070312 -11.765625 8.019531 -11.746094 C 7.902344 -11.695312 7.78125 -11.695312 7.660156 -11.695312 C 7.589844 -11.695312 7.539062 -11.695312 7.472656 -11.695312 C 7.453125 -11.695312 7.417969 -11.695312 7.386719 -11.695312 C 7.351562 -11.695312 7.332031 -11.695312 7.300781 -11.679688 C 7.007812 -11.59375 6.714844 -11.558594 6.40625 -11.507812 C 6.097656 -11.457031 5.789062 -11.386719 5.480469 -11.335938 C 5.152344 -11.300781 4.84375 -11.179688 4.535156 -11.09375 C 4.226562 -10.992188 3.914062 -10.890625 3.605469 -10.785156 C 3.539062 -10.785156 3.488281 -10.785156 3.433594 -10.855469 C 3.347656 -11.027344 3.230469 -11.042969 3.058594 -11.042969 C 2.902344 -11.027344 2.800781 -10.921875 2.78125 -10.75 C 2.78125 -10.648438 2.78125 -10.511719 2.765625 -10.40625 C 2.679688 -10.066406 2.644531 -9.738281 2.578125 -9.410156 C 2.523438 -9.136719 2.472656 -8.863281 2.421875 -8.570312 C 2.371094 -8.347656 2.300781 -8.140625 2.265625 -7.917969 C 2.234375 -7.710938 2.179688 -7.503906 2.148438 -7.300781 C 2.0625 -6.921875 1.976562 -6.527344 1.835938 -6.164062 C 1.820312 -6.148438 1.785156 -6.113281 1.769531 -6.113281 C 1.632812 -6.183594 1.476562 -6.132812 1.339844 -6.183594 C 1.203125 -6.21875 1.082031 -6.269531 1.03125 -6.421875 C 0.996094 -6.527344 0.945312 -6.613281 0.824219 -6.613281 C 0.773438 -6.664062 0.738281 -6.679688 0.6875 -6.679688 C 0.480469 -6.679688 0.207031 -6.441406 0.207031 -6.234375 C 0.222656 -5.925781 0.121094 -5.617188 0.136719 -5.289062 C 0.136719 -5.253906 0.136719 -5.222656 0.121094 -5.203125 C 0.0703125 -5.082031 0.0859375 -4.964844 0.0859375 -4.84375 C 0.0703125 -4.621094 0.0703125 -4.398438 0.0703125 -4.191406 C 0.0703125 -4.121094 0.0859375 -4.070312 0.0703125 -4.019531 C 0 -3.898438 0.015625 -3.761719 0.015625 -3.640625 C 0.015625 -3.519531 0.015625 -3.382812 0.015625 -3.261719 C 0.015625 -3.160156 0.015625 -2.609375 0.0507812 -2.558594 C 0.0703125 -2.542969 0.0703125 -2.507812 0.0507812 -2.472656 C 0 -2.351562 0.015625 -2.234375 0.0507812 -2.113281 C 0.0703125 -2.042969 0.0703125 -1.976562 0.0703125 -1.890625 C 0.0703125 -1.289062 0.0703125 -0.6875 0.0703125 -0.0859375 C 0.0703125 -0.015625 0.0859375 0.0351562 0.0507812 0.0859375 C -0.015625 0.222656 0.0507812 0.328125 0.136719 0.394531 C 0.242188 0.5 0.359375 0.582031 0.464844 0.667969 C 0.5 0.6875 0.53125 0.667969 0.550781 0.667969 C 0.636719 0.636719 0.6875 0.601562 0.738281 0.53125 C 0.789062 0.464844 0.839844 0.394531 0.894531 0.328125 C 0.945312 0.257812 0.960938 0.171875 0.925781 0.101562 C 0.875 0 0.859375 -0.136719 0.894531 -0.242188 C 0.945312 -0.359375 0.910156 -0.515625 1.03125 -0.601562 C 1.066406 -0.652344 1.066406 -0.703125 1.066406 -0.753906 C 1.066406 -0.859375 1.097656 -0.925781 1.132812 -1.011719 C 1.183594 -1.097656 1.21875 -1.183594 1.253906 -1.269531 C 1.339844 -1.496094 1.390625 -1.71875 1.476562 -1.921875 C 1.546875 -2.148438 1.546875 -2.386719 1.648438 -2.59375 C 1.648438 -2.746094 1.699219 -2.886719 1.785156 -3.023438 C 1.804688 -3.058594 1.785156 -3.109375 1.804688 -3.144531 C 1.835938 -3.316406 1.855469 -3.503906 1.90625 -3.660156 C 1.957031 -3.796875 1.976562 -3.933594 2.042969 -4.054688 C 2.078125 -4.140625 2.042969 -4.242188 2.0625 -4.328125 C 2.113281 -4.449219 2.128906 -4.601562 2.199219 -4.722656 C 2.285156 -4.859375 2.234375 -5.03125 2.285156 -5.167969 C 2.300781 -5.1875 2.320312 -5.222656 2.320312 -5.253906 C 2.335938 -5.359375 2.386719 -5.445312 2.386719 -5.546875 C 2.386719 -5.617188 2.472656 -5.683594 2.542969 -5.683594 C 2.59375 -5.683594 2.628906 -5.683594 2.679688 -5.683594 C 2.9375 -5.683594 3.175781 -5.683594 3.433594 -5.683594 C 3.46875 -5.683594 3.503906 -5.683594 3.539062 -5.683594 C 3.574219 -5.683594 3.605469 -5.683594 3.625 -5.703125 C 3.746094 -5.753906 3.882812 -5.753906 4 -5.753906 C 4.054688 -5.753906 4.121094 -5.753906 4.171875 -5.753906 C 4.242188 -5.753906 4.3125 -5.769531 4.378906 -5.789062 C 4.398438 -5.789062 4.414062 -5.804688 4.414062 -5.804688 C 4.464844 -5.804688 4.5 -5.769531 4.535156 -5.769531 C 4.550781 -5.769531 4.570312 -5.789062 4.585938 -5.789062 C 4.636719 -5.824219 4.6875 -5.824219 4.742188 -5.824219 C 4.792969 -5.824219 4.84375 -5.824219 4.878906 -5.839844 C 4.929688 -5.855469 4.980469 -5.855469 5.03125 -5.855469 C 5.082031 -5.855469 5.136719 -5.855469 5.1875 -5.855469 C 5.222656 -5.855469 5.238281 -5.855469 5.273438 -5.855469 C 5.324219 -5.855469 5.375 -5.855469 5.410156 -5.90625 C 5.394531 -5.890625 5.753906 -5.925781 5.855469 -5.960938 C 5.941406 -6.046875 6.0625 -6.0625 6.183594 -6.078125 Z M 2.320312 -6.613281 C 2.320312 -6.578125 2.320312 -6.527344 2.320312 -6.476562 C 2.335938 -6.476562 2.371094 -6.457031 2.371094 -6.441406 C 2.371094 -6.371094 2.371094 -6.304688 2.371094 -6.21875 C 2.371094 -6.183594 2.300781 -6.148438 2.25 -6.164062 C 2.199219 -6.183594 2.199219 -6.21875 2.199219 -6.269531 C 2.199219 -6.371094 2.320312 -6.390625 2.320312 -6.492188 C 2.25 -6.542969 2.25 -6.5625 2.320312 -6.613281 C 2.335938 -6.664062 2.371094 -6.679688 2.40625 -6.679688 C 2.421875 -6.679688 2.4375 -6.664062 2.472656 -6.664062 C 2.421875 -6.628906 2.371094 -6.613281 2.320312 -6.613281 Z M 0.925781 -1.992188 C 0.925781 -1.976562 0.925781 -1.941406 0.910156 -1.890625 C 0.910156 -1.90625 0.875 -1.921875 0.894531 -1.941406 C 0.894531 -1.957031 0.925781 -1.976562 0.945312 -1.992188 C 0.945312 -2.042969 0.945312 -2.078125 0.945312 -2.128906 C 0.945312 -2.148438 0.980469 -2.148438 0.980469 -2.164062 C 0.980469 -2.148438 0.996094 -2.148438 0.996094 -2.128906 C 0.996094 -2.078125 1.011719 -2.027344 0.925781 -1.992188 Z M 0.925781 -1.203125 C 0.925781 -1.183594 0.925781 -1.152344 0.925781 -1.117188 C 0.894531 -1.117188 0.875 -1.132812 0.875 -1.152344 C 0.894531 -1.167969 0.925781 -1.183594 0.945312 -1.203125 C 0.925781 -1.339844 0.925781 -1.476562 1.011719 -1.597656 C 1.011719 -1.613281 1.03125 -1.632812 1.046875 -1.632812 C 1.046875 -1.613281 1.066406 -1.597656 1.066406 -1.582031 C 1.046875 -1.460938 1.011719 -1.355469 0.980469 -1.238281 C 0.980469 -1.238281 0.945312 -1.21875 0.925781 -1.203125 Z M 0.773438 -2.179688 C 0.703125 -2.40625 0.667969 -2.578125 0.667969 -2.746094 C 0.6875 -2.9375 0.667969 -3.144531 0.667969 -3.332031 C 0.667969 -3.453125 0.652344 -3.554688 0.617188 -3.660156 C 0.582031 -3.761719 0.6875 -3.847656 0.6875 -3.96875 C 0.667969 -4.140625 0.667969 -4.292969 0.667969 -4.464844 C 0.667969 -4.601562 0.652344 -4.742188 0.722656 -4.878906 C 0.738281 -4.910156 0.738281 -4.964844 0.738281 -5.015625 C 0.722656 -5.308594 0.753906 -5.597656 0.808594 -5.890625 C 0.824219 -5.90625 0.839844 -5.925781 0.859375 -5.941406 C 0.996094 -5.890625 1.152344 -5.824219 1.304688 -5.789062 C 1.410156 -5.769531 1.496094 -5.753906 1.597656 -5.753906 C 1.71875 -5.738281 1.75 -5.683594 1.71875 -5.582031 C 1.546875 -5.117188 1.527344 -4.636719 1.339844 -4.191406 C 1.21875 -3.554688 0.980469 -2.816406 0.773438 -2.179688 Z M 1.613281 -3.660156 C 1.5625 -3.882812 1.632812 -4.070312 1.71875 -4.257812 C 1.769531 -4.378906 1.804688 -4.484375 1.804688 -4.601562 C 1.804688 -4.757812 1.992188 -5.425781 2.0625 -5.53125 C 2.0625 -5.566406 2.09375 -5.582031 2.113281 -5.597656 C 2.128906 -5.617188 2.164062 -5.597656 2.164062 -5.597656 C 2.148438 -5.496094 2.214844 -5.375 2.148438 -5.289062 C 2.027344 -5.167969 2.027344 -5.015625 1.992188 -4.859375 C 1.992188 -4.808594 1.992188 -4.757812 1.957031 -4.742188 C 1.820312 -4.65625 1.835938 -4.515625 1.890625 -4.398438 C 1.90625 -4.34375 1.890625 -4.328125 1.855469 -4.292969 C 1.785156 -4.242188 1.734375 -4.171875 1.769531 -4.070312 C 1.785156 -4.054688 1.769531 -4 1.75 -3.984375 C 1.734375 -3.933594 1.699219 -3.898438 1.683594 -3.847656 C 1.664062 -3.8125 1.699219 -3.761719 1.699219 -3.726562 C 1.699219 -3.710938 1.648438 -3.691406 1.613281 -3.660156 Z M 2.851562 -8.382812 C 2.832031 -8.347656 2.851562 -8.328125 2.832031 -8.3125 C 2.730469 -8.242188 2.714844 -8.191406 2.765625 -8.070312 C 2.816406 -7.96875 2.765625 -7.867188 2.695312 -7.761719 C 2.695312 -7.761719 2.664062 -7.78125 2.644531 -7.78125 C 2.609375 -7.816406 2.578125 -7.847656 2.59375 -7.902344 C 2.609375 -8.070312 2.644531 -8.261719 2.730469 -8.414062 C 2.746094 -8.433594 2.765625 -8.449219 2.78125 -8.449219 C 2.832031 -8.433594 2.851562 -8.414062 2.851562 -8.382812 Z M 2.628906 -7.589844 C 2.664062 -7.472656 2.664062 -7.367188 2.644531 -7.265625 C 2.628906 -7.230469 2.59375 -7.195312 2.558594 -7.160156 C 2.558594 -7.160156 2.523438 -7.160156 2.507812 -7.160156 C 2.492188 -7.160156 2.472656 -7.179688 2.457031 -7.195312 C 2.4375 -7.351562 2.457031 -7.503906 2.628906 -7.589844 Z M 0.242188 -4.171875 C 0.257812 -4.121094 0.273438 -4.105469 0.273438 -4.085938 C 0.273438 -3.882812 0.273438 -3.675781 0.273438 -3.46875 C 0.273438 -3.453125 0.257812 -3.433594 0.242188 -3.402344 C 0.207031 -3.519531 0.222656 -3.640625 0.222656 -3.761719 C 0.222656 -3.898438 0.207031 -4.019531 0.242188 -4.171875 Z M 0.292969 -4.621094 C 0.292969 -4.859375 0.292969 -5.082031 0.292969 -5.324219 C 0.359375 -5.203125 0.34375 -5.082031 0.34375 -4.964844 C 0.34375 -4.84375 0.34375 -4.722656 0.292969 -4.621094 Z M 1.304688 -2.25 C 1.304688 -2.234375 1.289062 -2.199219 1.269531 -2.199219 C 1.21875 -2.179688 1.203125 -2.128906 1.203125 -2.078125 C 1.183594 -2.042969 1.167969 -2.007812 1.132812 -2.007812 C 1.066406 -2.027344 1.117188 -2.078125 1.132812 -2.113281 C 1.132812 -2.164062 1.132812 -2.214844 1.152344 -2.265625 C 1.152344 -2.300781 1.183594 -2.335938 1.21875 -2.371094 C 1.238281 -2.371094 1.304688 -2.285156 1.304688 -2.25 Z M 1.632812 -3.417969 C 1.597656 -3.367188 1.5625 -3.316406 1.546875 -3.261719 C 1.511719 -3.195312 1.527344 -3.125 1.460938 -3.089844 C 1.460938 -3.089844 1.441406 -3.074219 1.425781 -3.074219 C 1.425781 -3.074219 1.410156 -3.089844 1.410156 -3.109375 C 1.425781 -3.175781 1.476562 -3.433594 1.527344 -3.433594 C 1.546875 -3.433594 1.582031 -3.433594 1.632812 -3.417969 Z M 1.324219 -2.558594 C 1.304688 -2.558594 1.304688 -2.558594 1.269531 -2.578125 C 1.269531 -2.714844 1.339844 -2.816406 1.390625 -2.9375 C 1.390625 -2.953125 1.425781 -2.953125 1.441406 -2.953125 C 1.410156 -2.832031 1.410156 -2.730469 1.375 -2.628906 C 1.375 -2.59375 1.339844 -2.578125 1.324219 -2.558594 Z M 0.242188 -2.609375 C 0.292969 -2.507812 0.273438 -2.40625 0.257812 -2.300781 C 0.207031 -2.40625 0.242188 -2.507812 0.242188 -2.609375 Z M 2.578125 -7.007812 C 2.558594 -7.007812 2.558594 -6.972656 2.542969 -6.972656 C 2.523438 -6.957031 2.507812 -6.957031 2.492188 -6.957031 C 2.457031 -6.957031 2.4375 -6.957031 2.421875 -6.972656 C 2.40625 -6.972656 2.40625 -7.007812 2.40625 -7.023438 C 2.421875 -7.074219 2.457031 -7.074219 2.507812 -7.074219 C 2.542969 -7.074219 2.558594 -7.058594 2.578125 -7.007812 Z M 6.90625 -11.234375 C 7.007812 -11.285156 7.042969 -11.316406 7.074219 -11.335938 C 7.09375 -11.335938 7.128906 -11.335938 7.128906 -11.316406 C 7.144531 -11.316406 7.160156 -11.300781 7.160156 -11.285156 C 7.179688 -11.265625 7.144531 -11.25 7.144531 -11.25 C 7.09375 -11.234375 7.042969 -11.234375 6.90625 -11.234375 Z M 0.308594 -1.425781 C 0.273438 -1.496094 0.273438 -1.5625 0.308594 -1.632812 C 0.34375 -1.5625 0.34375 -1.511719 0.308594 -1.425781 Z M 1.203125 -2.832031 C 1.203125 -2.816406 1.203125 -2.800781 1.183594 -2.800781 C 1.183594 -2.78125 1.167969 -2.765625 1.167969 -2.746094 C 1.152344 -2.78125 1.152344 -2.800781 1.152344 -2.816406 C 1.152344 -2.832031 1.167969 -2.867188 1.167969 -2.886719 C 1.183594 -2.867188 1.183594 -2.851562 1.203125 -2.832031 Z M 1.097656 -2.492188 C 1.066406 -2.507812 1.066406 -2.59375 1.097656 -2.609375 C 1.097656 -2.628906 1.117188 -2.628906 1.117188 -2.609375 C 1.132812 -2.59375 1.132812 -2.523438 1.117188 -2.507812 C 1.117188 -2.492188 1.097656 -2.492188 1.097656 -2.492188 Z M 0.859375 -1.5625 C 0.839844 -1.582031 0.824219 -1.582031 0.824219 -1.582031 C 0.824219 -1.597656 0.808594 -1.632812 0.824219 -1.664062 C 0.824219 -1.683594 0.839844 -1.683594 0.839844 -1.699219 C 0.859375 -1.683594 0.859375 -1.664062 0.859375 -1.648438 C 0.875 -1.632812 0.859375 -1.597656 0.859375 -1.5625 Z M 1.664062 -4.535156 C 1.664062 -4.515625 1.664062 -4.5 1.648438 -4.5 C 1.648438 -4.484375 1.648438 -4.484375 1.632812 -4.464844 C 1.632812 -4.484375 1.613281 -4.5 1.613281 -4.515625 C 1.613281 -4.550781 1.613281 -4.570312 1.632812 -4.601562 C 1.648438 -4.570312 1.648438 -4.550781 1.664062 -4.535156 Z M 1.390625 -3.433594 C 1.355469 -3.433594 1.339844 -3.453125 1.339844 -3.453125 C 1.339844 -3.488281 1.355469 -3.519531 1.355469 -3.554688 C 1.390625 -3.503906 1.390625 -3.46875 1.390625 -3.433594 Z M 2.832031 -8.84375 C 2.800781 -8.84375 2.800781 -8.863281 2.800781 -8.878906 C 2.832031 -8.878906 2.832031 -8.863281 2.832031 -8.84375 Z M 6.578125 -11.214844 C 6.578125 -11.199219 6.578125 -11.199219 6.578125 -11.179688 C 6.5625 -11.164062 6.492188 -11.179688 6.507812 -11.199219 C 6.542969 -11.214844 6.5625 -11.214844 6.578125 -11.214844 Z M 1.410156 -3.761719 C 1.410156 -3.777344 1.425781 -3.796875 1.441406 -3.8125 C 1.460938 -3.777344 1.441406 -3.746094 1.425781 -3.746094 C 1.425781 -3.746094 1.410156 -3.761719 1.410156 -3.761719 Z M 1.289062 -3.230469 C 1.289062 -3.246094 1.289062 -3.261719 1.324219 -3.28125 C 1.339844 -3.261719 1.324219 -3.210938 1.304688 -3.210938 C 1.289062 -3.210938 1.289062 -3.230469 1.289062 -3.230469 Z M 1.699219 -4.808594 C 1.699219 -4.792969 1.71875 -4.773438 1.71875 -4.773438 C 1.71875 -4.757812 1.699219 -4.742188 1.699219 -4.722656 C 1.683594 -4.742188 1.664062 -4.742188 1.683594 -4.757812 C 1.683594 -4.773438 1.683594 -4.792969 1.699219 -4.808594 Z M 1.769531 -5.066406 C 1.769531 -5.03125 1.769531 -5.015625 1.769531 -4.996094 C 1.75 -4.996094 1.734375 -5.015625 1.75 -5.015625 C 1.75 -5.03125 1.75 -5.050781 1.769531 -5.066406 Z M 1.496094 -4.019531 C 1.511719 -4 1.511719 -3.984375 1.511719 -3.96875 C 1.511719 -3.949219 1.511719 -3.949219 1.496094 -3.933594 C 1.496094 -3.96875 1.496094 -3.984375 1.496094 -4.019531 Z M 2.351562 -6.851562 C 2.371094 -6.835938 2.386719 -6.820312 2.371094 -6.820312 C 2.371094 -6.800781 2.371094 -6.785156 2.351562 -6.765625 C 2.351562 -6.800781 2.351562 -6.820312 2.351562 -6.851562 Z M 1.21875 -3.074219 C 1.238281 -3.074219 1.253906 -3.058594 1.253906 -3.039062 C 1.253906 -3.023438 1.238281 -3.023438 1.238281 -3.003906 C 1.21875 -3.039062 1.21875 -3.058594 1.21875 -3.074219 Z M 0.242188 -2.746094 C 0.242188 -2.765625 0.242188 -2.78125 0.222656 -2.800781 C 0.222656 -2.816406 0.242188 -2.816406 0.242188 -2.832031 C 0.257812 -2.816406 0.257812 -2.800781 0.273438 -2.78125 C 0.273438 -2.765625 0.257812 -2.765625 0.242188 -2.746094 Z M 1.066406 -2.320312 C 1.046875 -2.300781 1.046875 -2.300781 1.03125 -2.285156 C 1.03125 -2.320312 1.03125 -2.335938 1.03125 -2.371094 C 1.046875 -2.351562 1.046875 -2.335938 1.066406 -2.320312 Z M 6.714844 -11.199219 L 6.699219 -11.199219 L 6.714844 -11.214844 Z M 1.820312 -5.273438 L 1.835938 -5.273438 L 1.820312 -5.253906 Z M 1.890625 -5.597656 L 1.90625 -5.597656 L 1.890625 -5.582031 Z M 1.5625 -4.277344 L 1.582031 -4.277344 L 1.5625 -4.257812 Z M 0.257812 -4.414062 L 0.257812 -4.398438 L 0.242188 -4.414062 Z M 8.605469 -11.402344 C 8.535156 -11.402344 8.46875 -11.402344 8.414062 -11.402344 C 8.433594 -11.386719 8.449219 -11.371094 8.46875 -11.371094 C 8.5 -11.371094 8.535156 -11.386719 8.605469 -11.402344 Z M 10.992188 -11.917969 C 10.976562 -11.9375 10.957031 -11.9375 10.941406 -11.9375 C 10.941406 -11.917969 10.957031 -11.902344 10.957031 -11.902344 C 10.976562 -11.902344 10.992188 -11.917969 10.992188 -11.917969 Z M 10.992188 -11.917969 "/></g></g></g><g fill="#21d4fd" fill-opacity="1"><g transform="translate(34.913349, 37.694575)"><g><path d="M 2.679688 -2.148438 C 2.695312 -2.179688 2.664062 -2.214844 2.628906 -2.234375 L 2.628906 -2.265625 C 2.628906 -2.300781 2.628906 -2.335938 2.664062 -2.335938 C 2.664062 -2.335938 2.679688 -2.320312 2.695312 -2.320312 C 2.746094 -2.300781 2.816406 -2.285156 2.816406 -2.179688 L 2.816406 -1.855469 C 2.816406 -1.75 2.867188 -1.648438 2.886719 -1.546875 C 2.902344 -1.046875 3.210938 -0.703125 3.574219 -0.394531 C 3.589844 -0.378906 3.640625 -0.378906 3.660156 -0.359375 C 3.691406 -0.34375 3.726562 -0.328125 3.761719 -0.328125 C 3.984375 -0.328125 4.671875 -0.894531 4.828125 -1.046875 C 4.894531 -1.097656 4.859375 -1.183594 4.910156 -1.238281 C 4.964844 -1.269531 5.03125 -1.324219 5.082031 -1.375 C 5.101562 -1.390625 5.101562 -1.425781 5.082031 -1.425781 L 5.03125 -1.425781 C 4.722656 -1.21875 4.429688 -1.011719 4.105469 -0.859375 C 4 -0.808594 3.898438 -0.789062 3.796875 -0.789062 C 3.746094 -0.789062 3.691406 -0.789062 3.640625 -0.808594 C 3.488281 -1.011719 3.417969 -1.269531 3.417969 -1.527344 C 3.417969 -2.421875 3.863281 -4.328125 4.226562 -5.050781 C 4.34375 -5.253906 4.363281 -5.480469 4.328125 -5.703125 C 4.242188 -5.753906 4.15625 -5.804688 4.070312 -5.804688 C 4.019531 -5.804688 3.96875 -5.789062 3.914062 -5.753906 C 3.898438 -5.738281 3.863281 -5.738281 3.847656 -5.738281 C 3.8125 -5.738281 3.796875 -5.738281 3.761719 -5.753906 C 3.519531 -5.875 3.28125 -5.875 3.023438 -5.875 C 2.609375 -5.855469 2.25 -5.753906 1.921875 -5.480469 C 1.785156 -5.359375 1.648438 -5.203125 1.476562 -5.136719 C 1.460938 -5.117188 1.441406 -5.101562 1.441406 -5.082031 C 1.390625 -4.980469 1.304688 -4.878906 1.21875 -4.84375 C 1.082031 -4.773438 1.117188 -4.621094 0.996094 -4.535156 C 0.636719 -4.207031 0.378906 -3.675781 0.171875 -3.230469 C 0.136719 -3.195312 0.121094 -3.160156 0.101562 -3.125 C -0.207031 -2.179688 -0.359375 -1.597656 -0.359375 -0.566406 C -0.359375 -0.242188 -0.242188 0.0507812 0.015625 0.273438 L 0.136719 0.394531 C 0.1875 0.445312 0.257812 0.480469 0.34375 0.480469 C 0.429688 0.464844 0.53125 0.464844 0.617188 0.414062 C 0.875 0.292969 1.476562 -0.101562 1.613281 -0.328125 C 1.648438 -0.378906 1.75 -0.394531 1.785156 -0.464844 C 1.835938 -0.566406 1.921875 -0.652344 1.992188 -0.738281 C 1.941406 -0.875 2.113281 -0.945312 2.128906 -1.046875 C 2.148438 -1.152344 2.214844 -1.253906 2.265625 -1.339844 C 2.300781 -1.441406 2.351562 -1.527344 2.421875 -1.632812 C 2.457031 -1.699219 2.507812 -1.75 2.492188 -1.835938 C 2.609375 -1.890625 2.644531 -2.027344 2.679688 -2.148438 Z M 0.378906 0.0351562 C 0.359375 0.0507812 0.328125 0.0507812 0.292969 0.0703125 C 0.257812 0.0351562 0.222656 0.015625 0.222656 0 C 0.1875 -0.0351562 0.1875 -0.0859375 0.1875 -0.121094 C 0.1875 -0.242188 0.1875 -0.359375 0.136719 -0.480469 C 0.121094 -0.515625 0.121094 -0.566406 0.136719 -0.617188 C 0.207031 -0.859375 0.207031 -1.097656 0.242188 -1.355469 C 0.273438 -1.441406 0.292969 -1.546875 0.308594 -1.632812 C 0.414062 -1.941406 0.464844 -2.265625 0.601562 -2.558594 C 0.6875 -2.746094 0.738281 -2.9375 0.824219 -3.109375 C 0.859375 -3.175781 0.910156 -3.230469 0.945312 -3.296875 C 1.011719 -3.453125 1.132812 -3.574219 1.167969 -3.726562 C 1.183594 -3.746094 1.183594 -3.777344 1.203125 -3.796875 C 1.375 -3.914062 1.460938 -4.105469 1.632812 -4.242188 C 1.769531 -4.363281 1.890625 -4.535156 2.042969 -4.65625 C 2.300781 -4.84375 2.542969 -5.03125 2.851562 -5.152344 C 3.023438 -5.222656 3.175781 -5.324219 3.316406 -5.460938 C 3.367188 -5.496094 3.382812 -5.511719 3.417969 -5.511719 C 3.453125 -5.511719 3.46875 -5.496094 3.503906 -5.460938 C 3.605469 -5.375 3.625 -5.324219 3.574219 -5.203125 C 3.488281 -4.996094 3.382812 -4.792969 3.332031 -4.570312 C 3.296875 -4.328125 3.109375 -3.746094 2.988281 -3.519531 C 2.832031 -3.175781 2.664062 -2.832031 2.492188 -2.472656 C 2.40625 -2.25 2.25 -2.042969 2.113281 -1.835938 C 2.007812 -1.632812 1.871094 -1.441406 1.769531 -1.238281 C 1.425781 -0.6875 0.910156 -0.308594 0.378906 0.0351562 Z M 2.492188 -2.027344 C 2.507812 -2.042969 2.507812 -2.0625 2.507812 -2.078125 L 2.542969 -2.042969 C 2.542969 -2.027344 2.523438 -2.007812 2.507812 -1.992188 C 2.507812 -2.007812 2.492188 -2.007812 2.492188 -2.027344 Z M 0.53125 -3.660156 L 0.550781 -3.660156 L 0.550781 -3.640625 Z M 2.800781 -2.59375 L 2.78125 -2.59375 L 2.78125 -2.609375 Z M 0.480469 -3.539062 L 0.480469 -3.519531 L 0.464844 -3.519531 Z M 2.179688 -1.460938 L 2.179688 -1.496094 Z M 2.179688 -1.460938 "/></g></g></g><g fill="#21d4fd" fill-opacity="1"><g transform="translate(39.806213, 37.694575)"><g><path d="M 4.019531 -5.117188 C 3.984375 -5.101562 3.96875 -5.101562 3.949219 -5.066406 C 3.882812 -4.945312 3.777344 -4.828125 3.710938 -4.707031 C 3.519531 -4.449219 3.367188 -4.191406 3.210938 -3.914062 L 3.003906 -3.554688 C 2.988281 -3.46875 2.953125 -3.402344 2.902344 -3.316406 C 2.800781 -3.125 2.714844 -2.953125 2.644531 -2.765625 C 2.492188 -2.4375 2.40625 -2.148438 2.25 -1.835938 C 2.179688 -1.632812 2.078125 -1.410156 1.976562 -1.183594 C 1.957031 -1.167969 1.957031 -1.132812 1.957031 -1.097656 C 1.90625 -0.960938 1.820312 -0.824219 1.75 -0.667969 C 1.75 -0.652344 1.75 -0.636719 1.734375 -0.636719 C 1.699219 -0.601562 1.734375 -0.652344 1.699219 -0.636719 C 1.664062 -0.753906 1.597656 -0.875 1.582031 -1.011719 C 1.496094 -1.355469 1.425781 -1.683594 1.375 -2.027344 C 1.355469 -2.113281 1.304688 -2.179688 1.289062 -2.265625 C 1.289062 -2.4375 1.238281 -2.609375 1.203125 -2.78125 C 1.132812 -3.144531 1.046875 -3.503906 0.960938 -3.863281 C 0.925781 -3.949219 0.875 -4.054688 0.875 -4.15625 C 0.859375 -4.328125 0.753906 -4.464844 0.789062 -4.636719 C 0.703125 -4.964844 0.617188 -5.308594 0.550781 -5.652344 C 0.5 -5.824219 0.414062 -5.960938 0.222656 -6.011719 C 0.1875 -6.011719 0.15625 -6.027344 0.121094 -6.027344 C 0.0703125 -6.027344 0.015625 -6.011719 -0.0507812 -5.976562 C -0.121094 -5.925781 -0.171875 -5.875 -0.1875 -5.753906 C -0.171875 -5.703125 -0.15625 -5.652344 -0.101562 -5.597656 C -0.0859375 -5.480469 -0.0507812 -5.375 -0.015625 -5.253906 C 0.0703125 -4.792969 0.1875 -4.328125 0.308594 -3.882812 C 0.5 -3.175781 0.636719 -2.4375 0.773438 -1.71875 C 0.910156 -1.152344 1.046875 -0.550781 1.152344 0.015625 C 1.203125 0.15625 1.21875 0.257812 1.355469 0.257812 C 1.375 0.257812 1.390625 0.257812 1.410156 0.257812 C 1.441406 0.257812 1.496094 0.273438 1.511719 0.292969 C 1.5625 0.378906 1.632812 0.378906 1.734375 0.394531 C 1.75 0.414062 1.769531 0.414062 1.785156 0.414062 C 1.820312 0.414062 1.871094 0.394531 1.890625 0.34375 C 1.992188 0.121094 2.128906 -0.101562 2.214844 -0.34375 C 2.320312 -0.566406 2.351562 -0.824219 2.492188 -1.046875 C 2.507812 -1.046875 2.507812 -1.066406 2.492188 -1.082031 C 2.492188 -1.203125 2.542969 -1.289062 2.628906 -1.375 C 2.664062 -1.410156 2.679688 -1.425781 2.664062 -1.441406 C 2.578125 -1.511719 2.59375 -1.546875 2.679688 -1.597656 C 2.746094 -1.648438 2.765625 -1.734375 2.765625 -1.804688 C 2.78125 -1.890625 2.832031 -1.976562 2.867188 -2.042969 C 2.953125 -2.234375 3.058594 -2.421875 3.089844 -2.609375 C 3.160156 -2.730469 3.316406 -3.089844 3.347656 -3.230469 C 3.382812 -3.316406 3.453125 -3.382812 3.519531 -3.453125 C 3.539062 -3.46875 3.539062 -3.503906 3.554688 -3.539062 C 3.675781 -3.882812 3.914062 -4.242188 4.105469 -4.550781 C 4.257812 -4.792969 4.464844 -4.996094 4.621094 -5.238281 C 4.671875 -5.289062 4.6875 -5.339844 4.757812 -5.375 C 4.828125 -5.394531 4.859375 -5.445312 4.894531 -5.480469 C 5.015625 -5.582031 5.117188 -5.667969 5.1875 -5.789062 C 5.308594 -5.90625 5.445312 -5.925781 5.566406 -6.046875 C 5.597656 -6.0625 5.617188 -6.113281 5.632812 -6.148438 C 5.703125 -6.164062 5.769531 -6.183594 5.804688 -6.199219 C 5.875 -6.234375 5.90625 -6.285156 5.890625 -6.355469 C 5.890625 -6.390625 5.855469 -6.421875 5.824219 -6.421875 C 5.804688 -6.441406 5.769531 -6.441406 5.753906 -6.441406 C 5.683594 -6.441406 5.632812 -6.40625 5.566406 -6.390625 C 5.203125 -6.21875 4.140625 -5.511719 4 -5.117188 Z M 3.589844 -4.363281 C 3.675781 -4.515625 3.710938 -4.671875 3.863281 -4.757812 C 3.863281 -4.6875 3.863281 -4.621094 3.796875 -4.585938 C 3.726562 -4.515625 3.710938 -4.378906 3.589844 -4.363281 C 3.574219 -4.191406 3.453125 -4.019531 3.417969 -3.863281 C 3.316406 -3.796875 3.296875 -3.710938 3.296875 -3.640625 C 3.296875 -3.625 3.296875 -3.605469 3.28125 -3.605469 C 3.144531 -3.503906 3.144531 -3.347656 3.074219 -3.230469 C 3.089844 -3.160156 2.953125 -3.089844 3.058594 -3.023438 L 3.039062 -3.003906 C 2.988281 -2.988281 2.972656 -2.917969 2.972656 -2.886719 C 2.765625 -2.664062 2.746094 -2.609375 2.679688 -2.371094 C 2.628906 -2.265625 2.609375 -2.164062 2.578125 -2.078125 C 2.558594 -2.0625 2.542969 -2.0625 2.507812 -2.042969 C 2.507812 -2.0625 2.492188 -2.09375 2.507812 -2.09375 C 2.578125 -2.199219 2.558594 -2.320312 2.609375 -2.4375 C 2.730469 -2.714844 2.867188 -2.988281 2.972656 -3.28125 C 3.089844 -3.519531 3.210938 -3.761719 3.347656 -3.984375 C 3.417969 -4.054688 3.46875 -4.140625 3.488281 -4.207031 C 3.519531 -4.257812 3.539062 -4.34375 3.589844 -4.363281 Z M 2.4375 -1.855469 C 2.4375 -1.769531 2.386719 -1.71875 2.371094 -1.648438 C 2.300781 -1.75 2.386719 -1.804688 2.40625 -1.871094 L 2.421875 -1.871094 C 2.4375 -1.871094 2.4375 -1.871094 2.4375 -1.855469 Z M 4 -4.945312 C 4 -5.015625 4.019531 -5.050781 4.019531 -5.117188 L 4.070312 -5.117188 L 4.070312 -5.015625 C 4.070312 -4.980469 4.054688 -4.945312 4 -4.945312 Z M 0.996094 -2.265625 C 1.011719 -2.300781 1.046875 -2.335938 1.066406 -2.371094 C 1.066406 -2.320312 1.066406 -2.300781 1.046875 -2.265625 C 1.046875 -2.25 1.03125 -2.234375 1.03125 -2.214844 C 1.011719 -2.234375 0.996094 -2.25 0.996094 -2.265625 Z M 0.839844 -3.332031 C 0.839844 -3.316406 0.859375 -3.296875 0.859375 -3.28125 C 0.859375 -3.261719 0.839844 -3.261719 0.824219 -3.246094 L 0.824219 -3.296875 C 0.824219 -3.316406 0.839844 -3.316406 0.839844 -3.332031 Z M 1.339844 -1.097656 C 1.339844 -1.082031 1.339844 -1.046875 1.339844 -1.011719 C 1.324219 -1.03125 1.324219 -1.046875 1.304688 -1.066406 C 1.304688 -1.082031 1.324219 -1.082031 1.339844 -1.097656 Z M 1.203125 -1.648438 C 1.183594 -1.648438 1.167969 -1.683594 1.183594 -1.699219 C 1.203125 -1.699219 1.203125 -1.683594 1.21875 -1.664062 Z M 3.296875 -3.433594 C 3.296875 -3.417969 3.316406 -3.417969 3.316406 -3.402344 C 3.296875 -3.382812 3.261719 -3.367188 3.261719 -3.367188 C 3.28125 -3.402344 3.28125 -3.417969 3.296875 -3.433594 Z M 0.945312 -2.867188 C 0.960938 -2.851562 0.960938 -2.832031 0.980469 -2.816406 C 0.960938 -2.816406 0.960938 -2.800781 0.945312 -2.78125 C 0.945312 -2.816406 0.945312 -2.832031 0.945312 -2.867188 Z M 3.503906 -3.847656 L 3.519531 -3.8125 L 3.503906 -3.8125 Z M 1.167969 -1.835938 L 1.152344 -1.820312 L 1.132812 -1.820312 Z M 2.679688 -2.179688 L 2.695312 -2.164062 L 2.679688 -2.164062 Z M 2.902344 -2.578125 L 2.902344 -2.558594 L 2.886719 -2.558594 Z M 1.460938 -0.394531 L 1.476562 -0.414062 L 1.476562 -0.394531 Z M 1.441406 -0.636719 L 1.460938 -0.617188 L 1.441406 -0.617188 Z M 1.511719 -0.292969 L 1.527344 -0.292969 L 1.511719 -0.273438 Z M 1.238281 -1.375 L 1.253906 -1.375 L 1.253906 -1.355469 Z M 2.285156 -1.476562 L 2.25 -1.476562 Z M 3.574219 -4.019531 L 3.574219 -3.984375 Z M 3.574219 -4.019531 "/></g></g></g><g fill="#21d4fd" fill-opacity="1"><g transform="translate(44.081027, 37.694575)"><g><path d="M 1.339844 -6.183594 C 1.253906 -6.199219 1.167969 -6.148438 1.066406 -6.078125 C 0.945312 -5.976562 0.808594 -5.839844 0.6875 -5.683594 C 0.566406 -5.546875 0.515625 -5.359375 0.5 -5.167969 C 0.480469 -5.050781 0.5 -4.929688 0.445312 -4.808594 C 0.445312 -4.535156 0.394531 -4.257812 0.515625 -4.019531 C 0.566406 -3.933594 0.566406 -3.847656 0.550781 -3.746094 C 0.359375 -3.246094 0 -2.25 0 -1.804688 C 0 -1.460938 -0.0507812 -1.097656 0.0507812 -0.753906 C 0.015625 -0.53125 0.121094 -0.359375 0.1875 -0.15625 C 0.273438 0.0507812 0.394531 0.171875 0.53125 0.257812 C 0.582031 0.308594 0.667969 0.34375 0.722656 0.394531 C 0.875 0.480469 1.066406 0.53125 1.238281 0.53125 C 1.324219 0.53125 1.410156 0.5 1.511719 0.5 C 1.546875 0.5 1.582031 0.5 1.613281 0.515625 C 1.632812 0.53125 1.941406 0.429688 1.957031 0.414062 C 2.027344 0.328125 2.078125 0.328125 2.164062 0.308594 C 2.386719 0.292969 2.578125 0.222656 2.765625 0.0507812 C 2.78125 0 2.832031 -0.015625 2.851562 -0.015625 C 2.972656 -0.0351562 3.074219 -0.121094 3.160156 -0.1875 C 3.46875 -0.394531 3.726562 -0.617188 3.949219 -0.925781 C 3.984375 -0.996094 4.035156 -1.082031 4.035156 -1.152344 C 4.035156 -1.269531 4.070312 -1.324219 4.121094 -1.390625 C 4.3125 -1.597656 4.449219 -1.871094 4.5 -2.179688 C 4.550781 -2.335938 4.585938 -2.523438 4.585938 -2.695312 C 4.585938 -2.886719 4.636719 -3.003906 4.773438 -3.109375 C 4.828125 -3.160156 4.878906 -3.210938 4.929688 -3.246094 C 4.964844 -3.261719 4.996094 -3.296875 5.015625 -3.332031 C 5.050781 -3.367188 5.101562 -3.347656 5.101562 -3.417969 C 5.066406 -3.433594 5.03125 -3.453125 4.996094 -3.453125 C 4.878906 -3.453125 4.757812 -3.347656 4.65625 -3.332031 C 4.621094 -3.453125 4.585938 -3.574219 4.585938 -3.660156 C 4.585938 -4.054688 4.449219 -4.671875 4.277344 -5.015625 C 4.105469 -5.289062 3.898438 -5.53125 3.710938 -5.753906 C 3.691406 -5.769531 3.675781 -5.789062 3.660156 -5.789062 C 3.554688 -5.890625 3.453125 -5.941406 3.382812 -6.046875 C 3.296875 -6.148438 3.160156 -6.097656 3.074219 -6.183594 C 3.039062 -6.199219 3.023438 -6.234375 2.988281 -6.234375 C 2.867188 -6.285156 2.765625 -6.320312 2.644531 -6.320312 C 2.472656 -6.320312 2.300781 -6.335938 2.128906 -6.371094 C 2.042969 -6.390625 1.976562 -6.320312 1.890625 -6.335938 C 1.804688 -6.335938 1.71875 -6.335938 1.632812 -6.320312 C 1.527344 -6.320312 1.425781 -6.285156 1.339844 -6.183594 Z M 4.019531 -1.890625 C 3.949219 -1.820312 4 -1.769531 4 -1.699219 C 3.949219 -1.699219 3.914062 -1.699219 3.898438 -1.632812 C 3.828125 -1.597656 3.777344 -1.527344 3.726562 -1.441406 C 3.746094 -1.425781 3.761719 -1.410156 3.777344 -1.410156 C 3.761719 -1.390625 3.746094 -1.355469 3.726562 -1.355469 C 3.710938 -1.289062 3.660156 -1.21875 3.625 -1.132812 L 3.726562 -1.132812 C 3.710938 -1.046875 3.640625 -0.980469 3.574219 -0.996094 L 3.574219 -1.082031 C 3.488281 -1.082031 3.417969 -1.03125 3.367188 -0.960938 C 3.230469 -0.839844 3.074219 -0.753906 2.917969 -0.6875 C 2.578125 -0.480469 2.25 -0.34375 1.871094 -0.222656 C 1.804688 -0.207031 1.734375 -0.1875 1.648438 -0.1875 C 1.5625 -0.1875 1.476562 -0.1875 1.390625 -0.1875 C 1.117188 -0.1875 0.894531 -0.207031 0.6875 -0.394531 C 0.53125 -0.5 0.429688 -0.617188 0.359375 -0.824219 C 0.222656 -1.304688 0.242188 -1.75 0.394531 -2.199219 C 0.414062 -2.265625 0.445312 -2.371094 0.445312 -2.472656 C 0.464844 -2.523438 0.480469 -2.558594 0.480469 -2.59375 C 0.582031 -2.800781 0.6875 -2.972656 0.773438 -3.195312 C 0.789062 -3.210938 0.808594 -3.230469 0.839844 -3.230469 C 0.859375 -3.230469 0.875 -3.230469 0.875 -3.210938 C 0.996094 -3.003906 1.167969 -2.917969 1.339844 -2.832031 C 1.546875 -2.695312 2.179688 -2.40625 2.4375 -2.40625 C 2.4375 -2.40625 2.457031 -2.40625 2.472656 -2.40625 C 2.558594 -2.4375 2.664062 -2.320312 2.78125 -2.320312 C 2.886719 -2.320312 2.972656 -2.40625 3.058594 -2.40625 C 3.074219 -2.40625 3.089844 -2.40625 3.109375 -2.40625 C 3.125 -2.40625 3.144531 -2.40625 3.160156 -2.40625 C 3.316406 -2.40625 3.453125 -2.457031 3.605469 -2.492188 C 3.691406 -2.523438 3.746094 -2.578125 3.761719 -2.664062 C 3.777344 -2.695312 3.761719 -2.78125 3.8125 -2.746094 C 3.882812 -2.746094 3.933594 -2.746094 4 -2.78125 C 4.019531 -2.78125 4.070312 -2.78125 4.085938 -2.800781 C 4.140625 -2.816406 4.171875 -2.832031 4.226562 -2.832031 C 4.242188 -2.832031 4.277344 -2.832031 4.292969 -2.800781 C 4.3125 -2.730469 4.257812 -2.664062 4.242188 -2.609375 C 4.191406 -2.523438 4.191406 -2.457031 4.191406 -2.335938 C 4.105469 -2.285156 4.054688 -2.214844 4.085938 -2.113281 C 4.105469 -2.007812 4.085938 -1.976562 4.054688 -1.921875 C 4.035156 -1.90625 4.035156 -1.890625 4.019531 -1.890625 Z M 3.28125 -2.972656 C 3.230469 -2.953125 3.195312 -2.953125 3.144531 -2.953125 C 2.816406 -2.953125 2.457031 -2.972656 2.148438 -3.058594 C 2.078125 -3.109375 1.992188 -3.109375 1.921875 -3.144531 C 1.75 -3.195312 1.582031 -3.261719 1.441406 -3.402344 C 1.339844 -3.519531 1.203125 -3.574219 1.117188 -3.691406 C 1.066406 -3.777344 1.066406 -3.8125 1.097656 -3.914062 C 1.21875 -4.257812 1.75 -4.929688 2.007812 -5.152344 C 2.148438 -5.253906 2.300781 -5.339844 2.4375 -5.425781 C 2.523438 -5.480469 2.628906 -5.496094 2.730469 -5.546875 C 2.746094 -5.546875 2.800781 -5.53125 2.832031 -5.496094 C 3.089844 -5.425781 3.332031 -5.308594 3.589844 -5.203125 C 3.625 -5.167969 3.675781 -5.152344 3.710938 -5.136719 C 3.863281 -5.082031 3.96875 -4.980469 4.054688 -4.828125 C 4.070312 -4.808594 4.070312 -4.792969 4.085938 -4.773438 C 4.226562 -4.535156 4.34375 -4.207031 4.34375 -3.933594 C 4.363281 -3.8125 4.34375 -3.675781 4.378906 -3.554688 C 4.429688 -3.46875 4.378906 -3.382812 4.363281 -3.296875 C 4.328125 -3.246094 4.292969 -3.246094 4.242188 -3.230469 C 4.121094 -3.175781 4 -3.160156 3.898438 -3.058594 C 3.863281 -3.023438 3.796875 -3.023438 3.746094 -3.023438 C 3.589844 -3.023438 3.417969 -3.023438 3.28125 -2.972656 Z M 0.945312 -4.570312 C 0.910156 -4.5 0.875 -4.429688 0.808594 -4.378906 C 0.722656 -4.535156 0.722656 -4.6875 0.738281 -4.828125 C 0.773438 -5.03125 0.875 -5.167969 0.980469 -5.273438 C 1.117188 -5.375 1.253906 -5.460938 1.410156 -5.546875 C 1.441406 -5.546875 1.460938 -5.546875 1.476562 -5.546875 C 1.496094 -5.546875 1.527344 -5.546875 1.546875 -5.53125 C 1.527344 -5.480469 1.511719 -5.445312 1.496094 -5.425781 C 1.269531 -5.203125 1.082031 -4.910156 0.945312 -4.570312 Z M 3.589844 -2.746094 C 3.625 -2.730469 3.640625 -2.695312 3.660156 -2.644531 C 3.589844 -2.609375 3.503906 -2.644531 3.417969 -2.59375 C 3.417969 -2.59375 3.417969 -2.609375 3.417969 -2.609375 L 3.417969 -2.644531 C 3.453125 -2.695312 3.503906 -2.746094 3.589844 -2.746094 Z M 3.882812 -1.441406 C 3.898438 -1.496094 3.933594 -1.527344 3.96875 -1.5625 C 4 -1.5625 4.019531 -1.511719 4 -1.476562 C 3.984375 -1.441406 3.949219 -1.410156 3.914062 -1.390625 C 3.914062 -1.355469 3.898438 -1.390625 3.882812 -1.390625 Z M 3.023438 -2.628906 L 2.988281 -2.664062 C 3.023438 -2.695312 3.039062 -2.695312 3.058594 -2.695312 C 3.074219 -2.695312 3.109375 -2.695312 3.125 -2.679688 C 3.125 -2.679688 3.125 -2.664062 3.125 -2.628906 Z M 1.390625 -6.132812 C 1.355469 -6.132812 1.355469 -6.164062 1.339844 -6.183594 C 1.355469 -6.164062 1.375 -6.164062 1.425781 -6.148438 C 1.410156 -6.148438 1.390625 -6.113281 1.390625 -6.132812 Z M 4.035156 -1.648438 C 4.035156 -1.664062 4.019531 -1.683594 4.019531 -1.699219 L 4.070312 -1.699219 C 4.070312 -1.683594 4.054688 -1.664062 4.035156 -1.648438 Z M 3.726562 -1.441406 C 3.691406 -1.410156 3.691406 -1.410156 3.726562 -1.355469 Z M 5.101562 -3.554688 L 5.117188 -3.574219 L 5.101562 -3.574219 Z M 3.933594 -1.117188 L 3.933594 -1.097656 L 3.914062 -1.097656 Z M 3.144531 -0.414062 L 3.144531 -0.445312 Z M 3.144531 -0.414062 "/></g></g></g><g fill="#21d4fd" fill-opacity="1"><g transform="translate(49.248572, 37.694575)"><g><path d="M 2.078125 -4.449219 C 2.113281 -4.449219 2.128906 -4.484375 2.148438 -4.5 C 2.25 -4.535156 2.25 -4.636719 2.320312 -4.6875 C 2.507812 -4.808594 2.644531 -4.980469 2.800781 -5.136719 C 3.039062 -5.375 3.296875 -5.566406 3.574219 -5.738281 C 3.574219 -5.632812 3.574219 -5.632812 3.554688 -5.617188 C 3.453125 -5.566406 3.347656 -5.496094 3.296875 -5.375 C 3.175781 -5.359375 3.160156 -5.222656 3.058594 -5.167969 C 2.953125 -5.101562 2.851562 -5.015625 2.800781 -4.878906 C 2.78125 -4.859375 2.765625 -4.808594 2.730469 -4.808594 C 2.609375 -4.773438 2.578125 -4.636719 2.472656 -4.570312 C 2.351562 -4.515625 2.320312 -4.378906 2.25 -4.292969 L 1.890625 -3.882812 C 1.785156 -3.761719 1.683594 -3.625 1.632812 -3.453125 C 1.613281 -3.367188 1.582031 -3.296875 1.511719 -3.246094 C 1.460938 -3.195312 1.425781 -3.144531 1.375 -3.089844 C 1.441406 -3.074219 1.496094 -3.058594 1.527344 -3.058594 C 1.597656 -3.058594 1.648438 -3.089844 1.664062 -3.160156 C 1.71875 -3.382812 1.90625 -3.519531 2.042969 -3.710938 C 2.113281 -3.777344 2.164062 -3.847656 2.234375 -3.933594 C 2.351562 -4.105469 2.472656 -4.277344 2.628906 -4.414062 C 2.730469 -4.484375 2.800781 -4.585938 2.867188 -4.671875 C 2.917969 -4.792969 3.003906 -4.878906 3.089844 -4.945312 C 3.195312 -4.996094 3.230469 -5.082031 3.261719 -5.167969 C 3.332031 -5.1875 3.382812 -5.238281 3.433594 -5.238281 C 3.453125 -5.238281 3.488281 -5.222656 3.503906 -5.203125 C 3.488281 -5.167969 3.488281 -5.117188 3.46875 -5.082031 C 3.433594 -4.964844 3.417969 -4.828125 3.367188 -4.707031 C 3.347656 -4.636719 3.417969 -4.65625 3.433594 -4.621094 C 3.453125 -4.601562 3.453125 -4.585938 3.46875 -4.570312 C 3.453125 -4.570312 3.402344 -4.570312 3.433594 -4.535156 L 3.46875 -4.570312 C 3.503906 -4.585938 3.539062 -4.621094 3.519531 -4.636719 C 3.46875 -4.742188 3.453125 -4.808594 3.589844 -4.859375 C 3.660156 -4.894531 3.691406 -4.964844 3.746094 -5.03125 C 3.796875 -5.152344 3.863281 -5.253906 3.933594 -5.375 C 4 -5.480469 4.054688 -5.597656 4.121094 -5.703125 C 4.070312 -5.890625 3.933594 -5.992188 3.796875 -6.113281 C 3.761719 -6.148438 3.726562 -6.164062 3.675781 -6.164062 C 3.625 -6.164062 3.554688 -6.148438 3.554688 -6.097656 C 3.574219 -6.046875 3.554688 -6.027344 3.539062 -6.027344 C 3.503906 -6.027344 3.488281 -6.027344 3.46875 -6.027344 C 3.46875 -6.0625 3.433594 -6.078125 3.417969 -6.078125 C 3.296875 -6.046875 3.175781 -6.011719 3.144531 -5.890625 C 3.109375 -5.890625 3.074219 -5.890625 3.039062 -5.875 C 2.886719 -5.753906 2.714844 -5.617188 2.609375 -5.425781 L 2.746094 -5.425781 C 2.59375 -5.222656 2.421875 -5.050781 2.214844 -4.910156 L 2.214844 -5.03125 C 2.0625 -4.945312 1.957031 -4.792969 1.835938 -4.671875 C 1.820312 -4.636719 1.820312 -4.601562 1.820312 -4.570312 C 1.785156 -4.570312 1.75 -4.550781 1.75 -4.5 L 1.75 -4.515625 C 1.785156 -4.515625 1.820312 -4.535156 1.820312 -4.570312 C 1.855469 -4.601562 1.90625 -4.621094 1.957031 -4.636719 C 1.941406 -4.601562 1.941406 -4.550781 1.921875 -4.515625 C 1.804688 -4.398438 1.699219 -4.242188 1.597656 -4.085938 C 1.5625 -4.019531 1.511719 -3.933594 1.425781 -3.914062 L 1.425781 -4.035156 C 1.425781 -4.035156 1.441406 -4.054688 1.441406 -4.054688 C 1.425781 -4.054688 1.425781 -4.054688 1.425781 -4.054688 L 1.324219 -3.984375 C 1.289062 -3.949219 1.269531 -3.933594 1.238281 -3.914062 C 1.21875 -3.984375 1.238281 -4.035156 1.253906 -4.105469 C 1.410156 -4.449219 1.527344 -4.808594 1.648438 -5.167969 C 1.699219 -5.273438 1.734375 -5.375 1.785156 -5.480469 C 1.835938 -5.566406 1.835938 -5.667969 1.820312 -5.753906 C 1.804688 -5.839844 1.71875 -5.875 1.648438 -5.90625 C 1.527344 -5.992188 1.410156 -6.097656 1.289062 -6.183594 C 1.253906 -6.199219 1.203125 -6.183594 1.183594 -6.148438 C 1.167969 -6.132812 1.167969 -6.113281 1.167969 -6.113281 C 1.066406 -5.769531 0.925781 -5.425781 0.808594 -5.101562 C 0.738281 -4.945312 0.667969 -4.773438 0.652344 -4.601562 C 0.617188 -4.449219 0.582031 -4.3125 0.515625 -4.171875 C 0.394531 -3.898438 0.359375 -3.605469 0.257812 -3.332031 C 0.222656 -3.261719 0.222656 -3.175781 0.242188 -3.144531 C 0.308594 -3.023438 0.257812 -2.9375 0.222656 -2.851562 C 0.15625 -2.714844 0.101562 -2.558594 0.0703125 -2.386719 L -0.0859375 -1.769531 C -0.101562 -1.648438 -0.0859375 -1.546875 -0.136719 -1.441406 C -0.1875 -1.339844 -0.136719 -1.203125 -0.207031 -1.097656 C -0.222656 -0.894531 -0.328125 -0.6875 -0.292969 -0.480469 C -0.273438 -0.359375 -0.292969 -0.257812 -0.34375 -0.15625 L -0.308594 -0.121094 C -0.257812 -0.15625 -0.257812 -0.1875 -0.207031 -0.1875 C -0.207031 -0.1875 -0.1875 -0.171875 -0.171875 -0.171875 C -0.171875 -0.101562 -0.171875 0 -0.15625 0.0859375 C -0.136719 0.207031 -0.0507812 0.273438 0.0507812 0.308594 C 0.101562 0.308594 0.136719 0.292969 0.171875 0.257812 C 0.242188 0.101562 0.273438 -0.0507812 0.292969 -0.222656 C 0.308594 -0.378906 0.34375 -0.515625 0.394531 -0.667969 C 0.480469 -0.875 0.53125 -1.097656 0.652344 -1.289062 C 0.753906 -1.460938 0.789062 -1.648438 0.910156 -1.785156 C 1.097656 -2.007812 1.183594 -2.300781 1.289062 -2.578125 C 1.339844 -2.679688 1.375 -2.78125 1.410156 -2.886719 C 1.410156 -2.902344 1.375 -2.9375 1.339844 -2.953125 C 1.339844 -2.972656 1.304688 -2.953125 1.289062 -2.953125 C 1.253906 -2.886719 1.203125 -2.816406 1.167969 -2.746094 C 1.132812 -2.664062 1.097656 -2.558594 1.03125 -2.492188 C 0.945312 -2.421875 0.875 -2.300781 0.824219 -2.199219 C 0.808594 -2.128906 0.773438 -2.078125 0.703125 -2.0625 C 0.722656 -2.199219 0.773438 -2.335938 0.824219 -2.457031 C 0.894531 -2.664062 0.960938 -2.851562 1.132812 -2.988281 C 1.152344 -3.023438 1.203125 -3.058594 1.203125 -3.089844 C 1.253906 -3.316406 1.390625 -3.46875 1.527344 -3.660156 C 1.5625 -3.691406 1.476562 -3.777344 1.546875 -3.796875 C 1.664062 -3.828125 1.632812 -3.933594 1.683594 -4 C 1.75 -4.105469 1.820312 -4.191406 1.890625 -4.3125 C 1.921875 -4.378906 1.992188 -4.429688 2.078125 -4.449219 Z M 3.144531 -5.632812 C 3.125 -5.597656 3.109375 -5.566406 3.074219 -5.566406 L 3.074219 -5.632812 L 2.9375 -5.632812 C 2.953125 -5.683594 3.003906 -5.71875 3.058594 -5.769531 C 3.089844 -5.804688 3.125 -5.839844 3.144531 -5.890625 L 3.261719 -5.890625 C 3.230469 -5.824219 3.175781 -5.753906 3.144531 -5.683594 C 3.160156 -5.683594 3.175781 -5.667969 3.195312 -5.667969 C 3.175781 -5.652344 3.160156 -5.632812 3.144531 -5.632812 Z M 1.066406 -3.367188 C 1.066406 -3.367188 1.082031 -3.347656 1.082031 -3.332031 C 1.082031 -3.28125 1.046875 -3.246094 1.011719 -3.210938 C 0.996094 -3.210938 0.996094 -3.210938 0.980469 -3.230469 L 0.980469 -3.246094 C 0.980469 -3.296875 0.996094 -3.316406 1.03125 -3.347656 C 1.046875 -3.347656 1.046875 -3.367188 1.066406 -3.367188 Z M 3.144531 -5.703125 C 3.109375 -5.683594 3.074219 -5.667969 3.074219 -5.632812 L 3.144531 -5.632812 Z M 0.667969 -2.027344 C 0.636719 -2.0625 0.6875 -2.0625 0.703125 -2.0625 C 0.6875 -2.0625 0.6875 -2.042969 0.667969 -2.027344 Z M 1.597656 -4.292969 L 1.582031 -4.277344 L 1.597656 -4.277344 Z M 1.957031 -4.636719 C 1.957031 -4.636719 1.941406 -4.636719 1.941406 -4.636719 Z M 1.957031 -4.636719 "/></g></g></g><g fill="#21d4fd" fill-opacity="1"><g transform="translate(52.802328, 37.694575)"><g><path d="M 2.679688 -1.699219 C 2.695312 -1.71875 2.714844 -1.734375 2.730469 -1.75 C 2.765625 -1.804688 2.765625 -1.90625 2.730469 -1.871094 C 2.714844 -1.855469 2.679688 -1.820312 2.664062 -1.785156 C 2.664062 -1.769531 2.679688 -1.734375 2.679688 -1.71875 C 2.492188 -1.683594 2.492188 -1.496094 2.40625 -1.441406 C 2.371094 -1.441406 2.351562 -1.425781 2.351562 -1.410156 C 2.371094 -1.410156 2.386719 -1.425781 2.40625 -1.425781 C 2.386719 -1.410156 2.371094 -1.375 2.351562 -1.355469 C 2.351562 -1.355469 2.351562 -1.375 2.351562 -1.390625 L 2.300781 -1.339844 C 2.300781 -1.339844 2.300781 -1.324219 2.320312 -1.304688 C 2.113281 -0.996094 1.441406 -0.222656 1.117188 -0.15625 C 1.066406 -0.0859375 0.910156 -0.328125 0.808594 -0.328125 C 0.789062 -0.359375 0.789062 -0.394531 0.753906 -0.414062 C 0.667969 -0.566406 0.652344 -0.722656 0.6875 -0.875 C 0.6875 -0.960938 0.6875 -1.066406 0.703125 -1.132812 C 0.722656 -1.355469 0.703125 -1.582031 0.789062 -1.804688 C 0.808594 -1.835938 0.808594 -1.871094 0.773438 -1.90625 C 0.753906 -1.941406 0.753906 -1.976562 0.773438 -2.007812 C 0.859375 -2.113281 0.859375 -2.285156 0.875 -2.421875 C 0.910156 -2.578125 0.894531 -2.730469 0.996094 -2.851562 C 0.960938 -3.023438 1.082031 -3.125 1.117188 -3.296875 C 1.152344 -3.46875 1.269531 -3.96875 1.339844 -4.121094 C 1.613281 -4.707031 1.871094 -5.324219 1.992188 -5.960938 C 2.007812 -6.132812 1.890625 -6.355469 1.734375 -6.441406 C 1.699219 -6.441406 1.664062 -6.457031 1.632812 -6.457031 L 1.441406 -6.457031 C 1.410156 -6.457031 1.375 -6.441406 1.339844 -6.421875 C 1.167969 -6.148438 1.066406 -5.855469 0.960938 -5.546875 C 0.894531 -5.308594 0.824219 -5.050781 0.738281 -4.808594 C 0.703125 -4.6875 0.652344 -4.601562 0.617188 -4.484375 C 0.480469 -4.019531 0.359375 -3.554688 0.222656 -3.109375 C 0.1875 -2.902344 0.121094 -2.730469 0.101562 -2.558594 C 0.0859375 -2.234375 0.0351562 -1.90625 0 -1.582031 C -0.015625 -1.339844 -0.0351562 -1.097656 0.0351562 -0.839844 C 0.0507812 -0.808594 0.0507812 -0.753906 0.0703125 -0.703125 C 0.0859375 -0.566406 0.15625 -0.445312 0.242188 -0.34375 C 0.34375 -0.222656 0.445312 -0.0859375 0.550781 0.0351562 C 0.636719 0.15625 0.753906 0.242188 0.910156 0.292969 C 0.960938 0.328125 1.03125 0.328125 1.097656 0.328125 C 1.390625 0.328125 1.785156 0.121094 1.976562 -0.136719 C 2.09375 -0.242188 2.0625 -0.273438 2.164062 -0.414062 C 2.265625 -0.515625 2.40625 -0.875 2.351562 -1.046875 C 2.351562 -1.082031 2.335938 -1.117188 2.371094 -1.117188 C 2.40625 -1.097656 2.421875 -1.066406 2.457031 -1.046875 C 2.492188 -1.097656 2.4375 -1.167969 2.457031 -1.21875 C 2.472656 -1.289062 2.507812 -1.339844 2.542969 -1.410156 C 2.578125 -1.496094 2.664062 -1.597656 2.664062 -1.699219 Z M 1.785156 -7.796875 C 1.890625 -7.710938 2.027344 -7.675781 2.164062 -7.609375 C 2.234375 -7.644531 2.320312 -7.675781 2.40625 -7.710938 C 2.457031 -7.730469 2.472656 -7.78125 2.472656 -7.816406 C 2.523438 -7.988281 2.492188 -8.140625 2.558594 -8.296875 C 2.578125 -8.3125 2.558594 -8.328125 2.542969 -8.347656 C 2.507812 -8.382812 2.4375 -8.414062 2.386719 -8.414062 C 2.371094 -8.414062 2.351562 -8.414062 2.335938 -8.398438 C 2.179688 -8.296875 2.007812 -8.175781 1.871094 -8.054688 C 1.820312 -8.019531 1.785156 -7.96875 1.75 -7.917969 C 1.734375 -7.882812 1.75 -7.816406 1.785156 -7.796875 Z M 2.351562 -1.355469 C 2.351562 -1.339844 2.351562 -1.324219 2.351562 -1.324219 C 2.351562 -1.304688 2.335938 -1.304688 2.335938 -1.289062 C 2.335938 -1.324219 2.335938 -1.339844 2.351562 -1.355469 Z M 2.351562 -1.355469 "/></g></g></g><g fill="#21d4fd" fill-opacity="1"><g transform="translate(55.411855, 37.694575)"><g><path d="M 3.984375 -11.917969 C 3.96875 -11.9375 3.949219 -11.9375 3.933594 -11.9375 C 3.933594 -11.917969 3.949219 -11.902344 3.949219 -11.902344 C 3.96875 -11.902344 3.984375 -11.917969 3.984375 -11.917969 Z M 3.316406 -9.839844 C 3.296875 -9.773438 3.296875 -9.738281 3.261719 -9.738281 C 3.246094 -9.738281 3.230469 -9.738281 3.210938 -9.753906 C 3.195312 -9.753906 3.175781 -9.773438 3.160156 -9.773438 C 3.417969 -10.476562 3.660156 -11.007812 3.933594 -11.542969 C 3.984375 -11.644531 4.035156 -11.695312 4.054688 -11.800781 C 4.085938 -11.917969 4.140625 -12.023438 4.15625 -12.144531 C 4.171875 -12.210938 4.171875 -12.28125 4.15625 -12.332031 C 4.121094 -12.453125 4.054688 -12.554688 4 -12.65625 C 3.96875 -12.726562 3.726562 -12.796875 3.675781 -12.777344 C 3.660156 -12.777344 3.660156 -12.777344 3.640625 -12.761719 C 3.382812 -12.589844 3.296875 -12.316406 3.195312 -12.023438 C 3.023438 -11.523438 2.886719 -11.316406 2.730469 -10.804688 C 2.714844 -10.734375 2.664062 -10.664062 2.644531 -10.597656 L 2.457031 -9.945312 L 2.457031 -9.910156 C 2.492188 -9.910156 2.523438 -9.945312 2.523438 -9.980469 C 2.523438 -10.046875 2.558594 -10.117188 2.609375 -10.183594 C 2.628906 -10.21875 2.664062 -10.234375 2.679688 -10.234375 C 2.714844 -10.234375 2.746094 -10.21875 2.78125 -10.183594 L 2.679688 -9.910156 C 2.609375 -9.894531 2.523438 -9.894531 2.457031 -9.894531 L 2.457031 -9.910156 C 2.4375 -9.894531 2.4375 -9.894531 2.421875 -9.894531 C 2.285156 -9.875 2.148438 -9.859375 2.027344 -9.859375 C 1.957031 -9.859375 1.890625 -9.859375 1.835938 -9.839844 C 1.71875 -9.808594 1.648438 -9.808594 1.527344 -9.808594 C 1.253906 -9.808594 0.960938 -9.738281 0.703125 -9.722656 C 0.582031 -9.722656 0.480469 -9.703125 0.378906 -9.703125 C 0.34375 -9.703125 0.328125 -9.703125 0.292969 -9.703125 L 0.136719 -9.667969 C 0.0507812 -9.667969 0.015625 -9.582031 -0.015625 -9.464844 C -0.0507812 -9.359375 -0.0351562 -9.207031 0 -9.070312 C 0 -8.964844 0.0703125 -8.878906 0.136719 -8.898438 C 0.15625 -8.898438 0.1875 -8.914062 0.222656 -8.898438 C 0.464844 -8.949219 0.667969 -9.015625 0.875 -9.015625 C 0.910156 -9.015625 0.925781 -9.015625 0.945312 -9.015625 C 1.066406 -9.035156 1.183594 -9.050781 1.304688 -9.050781 C 1.375 -9.050781 1.476562 -9.070312 1.5625 -9.085938 C 1.597656 -9.085938 1.613281 -9.085938 1.632812 -9.101562 C 1.613281 -9.136719 1.597656 -9.1875 1.5625 -9.207031 C 1.597656 -9.238281 1.632812 -9.238281 1.664062 -9.238281 C 1.785156 -9.257812 1.90625 -9.238281 2.027344 -9.292969 C 2.078125 -9.292969 2.148438 -9.292969 2.214844 -9.308594 L 2.214844 -9.257812 C 2.214844 -9.238281 2.214844 -9.222656 2.199219 -9.207031 C 2.179688 -9.171875 2.164062 -9.152344 2.179688 -9.136719 C 2.027344 -8.726562 1.460938 -7.300781 1.496094 -7.160156 C 1.582031 -7.195312 2.234375 -8.984375 2.25 -9.035156 L 2.25 -9.101562 C 2.335938 -9.101562 2.351562 -9.152344 2.285156 -9.222656 C 2.285156 -9.257812 2.300781 -9.292969 2.320312 -9.324219 C 2.335938 -9.324219 2.371094 -9.324219 2.40625 -9.34375 C 2.4375 -9.359375 2.472656 -9.359375 2.523438 -9.359375 C 2.507812 -9.324219 2.492188 -9.308594 2.492188 -9.292969 C 2.472656 -9.273438 2.472656 -9.257812 2.472656 -9.238281 L 2.472656 -9.222656 C 2.457031 -9.222656 2.457031 -9.222656 2.4375 -9.222656 C 2.386719 -9.222656 2.335938 -9.171875 2.457031 -9.136719 C 2.335938 -8.707031 1.734375 -7.179688 1.699219 -7.007812 C 1.613281 -6.734375 1.5625 -6.457031 1.460938 -6.199219 C 1.375 -5.925781 0.996094 -4.535156 0.839844 -4.277344 C 0.824219 -4.242188 0.824219 -4.171875 0.808594 -4.121094 C 0.773438 -3.898438 0.667969 -3.691406 0.652344 -3.46875 C 0.652344 -3.433594 0.636719 -3.417969 0.617188 -3.402344 L 0.550781 -3.160156 C 0.5 -2.9375 0.394531 -2.746094 0.414062 -2.523438 C 0.414062 -2.507812 0.414062 -2.507812 0.394531 -2.492188 C 0.292969 -2.300781 0.273438 -2.09375 0.242188 -1.890625 C 0.207031 -1.699219 0.136719 -1.511719 0.15625 -1.324219 C 0.15625 -1.289062 0.136719 -1.253906 0.121094 -1.21875 C 0.121094 -1.238281 0.101562 -1.253906 0.101562 -1.253906 C 0.0507812 -1.597656 0.171875 -1.921875 0.171875 -2.265625 L 0.171875 -2.285156 C 0.273438 -2.4375 0.292969 -2.609375 0.308594 -2.800781 C 0.308594 -2.953125 0.617188 -4.070312 0.667969 -4.242188 C 0.6875 -4.292969 1.03125 -5.445312 0.980469 -5.566406 C 0.925781 -5.324219 0.53125 -4.019531 0.464844 -3.8125 C 0.308594 -3.28125 -0.0507812 -2.128906 -0.0507812 -1.582031 L -0.0507812 -1.460938 C -0.15625 -1.183594 -0.101562 -0.894531 -0.101562 -0.601562 C -0.101562 -0.429688 0 -0.0507812 0.171875 0.0351562 C 0.328125 0.121094 0.445312 0.257812 0.582031 0.378906 C 0.636719 0.429688 0.6875 0.445312 0.738281 0.445312 C 0.789062 0.445312 0.824219 0.429688 0.875 0.414062 L 1.355469 0.207031 C 1.5625 0.101562 1.75 0.015625 1.921875 -0.136719 C 1.90625 -0.15625 1.890625 -0.15625 1.890625 -0.1875 L 1.941406 -0.222656 L 1.941406 -0.207031 C 1.941406 -0.242188 1.957031 -0.257812 1.992188 -0.273438 C 2.0625 -0.394531 2.164062 -0.480469 2.265625 -0.566406 C 2.300781 -0.601562 2.320312 -0.601562 2.351562 -0.601562 C 2.386719 -0.601562 2.40625 -0.601562 2.4375 -0.582031 C 2.457031 -0.582031 2.472656 -0.566406 2.507812 -0.566406 C 2.523438 -0.566406 2.542969 -0.582031 2.558594 -0.601562 C 2.578125 -0.636719 2.558594 -0.652344 2.523438 -0.667969 C 2.507812 -0.6875 2.492188 -0.703125 2.492188 -0.722656 C 2.492188 -0.773438 2.578125 -0.789062 2.609375 -0.789062 C 2.609375 -0.789062 2.628906 -0.789062 2.644531 -0.789062 C 2.664062 -0.773438 2.679688 -0.773438 2.695312 -0.773438 C 2.714844 -0.773438 2.730469 -0.808594 2.714844 -0.824219 C 2.679688 -0.910156 2.695312 -0.945312 2.765625 -0.996094 C 2.902344 -1.097656 3.039062 -1.21875 3.125 -1.375 C 3.160156 -1.410156 3.160156 -1.441406 3.160156 -1.496094 C 3.144531 -1.546875 3.175781 -1.5625 3.230469 -1.582031 C 3.261719 -1.597656 3.316406 -1.597656 3.347656 -1.597656 C 3.46875 -1.613281 3.519531 -1.683594 3.519531 -1.804688 C 3.574219 -1.820312 3.589844 -1.855469 3.589844 -1.90625 L 3.589844 -2.128906 L 3.519531 -2.128906 C 3.519531 -2.164062 3.554688 -2.179688 3.589844 -2.199219 L 3.589844 -2.128906 C 3.675781 -2.148438 3.691406 -2.148438 3.710938 -2.25 L 3.640625 -2.25 C 3.625 -2.214844 3.625 -2.199219 3.589844 -2.199219 C 3.589844 -2.234375 3.605469 -2.25 3.640625 -2.265625 C 3.660156 -2.300781 3.675781 -2.300781 3.710938 -2.320312 L 3.746094 -2.4375 C 3.8125 -2.523438 3.882812 -2.609375 3.984375 -2.664062 C 3.984375 -2.695312 4.019531 -2.714844 4.054688 -2.730469 C 4.035156 -2.679688 4.019531 -2.664062 3.984375 -2.644531 C 3.984375 -2.558594 3.933594 -2.507812 3.914062 -2.457031 C 4.035156 -2.457031 4.105469 -2.542969 4.15625 -2.628906 C 4.171875 -2.644531 4.15625 -2.695312 4.105469 -2.714844 L 4.054688 -2.714844 C 4.085938 -2.800781 4.15625 -2.886719 4.242188 -2.917969 C 4.257812 -2.902344 4.242188 -2.851562 4.292969 -2.886719 L 4.242188 -2.917969 C 4.242188 -2.988281 4.277344 -3.039062 4.328125 -3.089844 L 4.65625 -3.433594 C 4.84375 -3.691406 5.03125 -3.933594 5.253906 -4.15625 C 5.308594 -4.242188 5.308594 -4.277344 5.273438 -4.277344 C 5.253906 -4.277344 5.222656 -4.257812 5.167969 -4.207031 L 4.535156 -3.503906 C 4.257812 -3.160156 4 -2.832031 3.691406 -2.542969 L 3.417969 -2.25 C 3.332031 -2.113281 3.230469 -2.007812 3.125 -1.90625 L 2.628906 -1.410156 C 2.578125 -1.355469 2.523438 -1.289062 2.472656 -1.253906 C 2.320312 -1.167969 2.214844 -1.046875 2.09375 -0.925781 C 1.804688 -0.652344 1.476562 -0.414062 1.132812 -0.1875 C 1.046875 -0.121094 0.925781 -0.0703125 0.824219 -0.015625 C 0.808594 -0.015625 0.789062 0 0.753906 0 C 0.6875 0 0.652344 -0.0507812 0.617188 -0.121094 C 0.566406 -0.242188 0.550781 -0.359375 0.550781 -0.480469 L 0.550781 -0.875 C 0.550781 -0.960938 0.550781 -1.082031 0.566406 -1.167969 C 0.617188 -1.289062 0.617188 -1.425781 0.617188 -1.546875 C 0.617188 -1.664062 0.636719 -1.769531 0.667969 -1.871094 C 0.703125 -1.957031 0.738281 -2.042969 0.738281 -2.128906 L 0.808594 -2.507812 C 0.824219 -2.664062 0.894531 -2.78125 0.945312 -2.902344 C 0.980469 -3.003906 0.980469 -3.089844 1.011719 -3.195312 C 1.03125 -3.28125 1.046875 -3.367188 1.082031 -3.433594 C 1.097656 -3.488281 1.21875 -3.914062 1.21875 -3.96875 C 1.21875 -4.035156 1.238281 -4.085938 1.269531 -4.15625 C 1.304688 -4.226562 1.683594 -5.394531 1.699219 -5.480469 C 1.75 -5.703125 1.820312 -5.925781 1.890625 -6.132812 C 2.007812 -6.542969 2.78125 -8.621094 2.917969 -9.035156 L 3.074219 -9.480469 C 3.125 -9.464844 3.160156 -9.464844 3.195312 -9.464844 C 3.230469 -9.464844 3.261719 -9.464844 3.28125 -9.480469 C 3.316406 -9.480469 3.367188 -9.515625 3.402344 -9.496094 C 3.417969 -9.464844 3.433594 -9.464844 3.453125 -9.464844 C 3.488281 -9.464844 3.503906 -9.480469 3.519531 -9.480469 C 3.539062 -9.515625 3.554688 -9.550781 3.574219 -9.550781 C 3.589844 -9.550781 3.589844 -9.53125 3.605469 -9.515625 C 3.640625 -9.445312 3.640625 -9.445312 3.675781 -9.480469 L 3.605469 -9.515625 C 3.625 -9.566406 3.660156 -9.550781 3.675781 -9.550781 L 3.675781 -9.515625 C 3.691406 -9.566406 3.691406 -9.566406 3.691406 -9.496094 L 3.777344 -9.566406 C 3.796875 -9.582031 3.828125 -9.601562 3.882812 -9.601562 C 3.898438 -9.601562 3.914062 -9.601562 3.933594 -9.601562 C 4.054688 -9.617188 4.15625 -9.636719 4.257812 -9.6875 C 4.3125 -9.6875 4.34375 -9.738281 4.378906 -9.722656 C 4.535156 -9.703125 4.6875 -9.824219 4.84375 -9.824219 C 4.980469 -9.859375 5.082031 -9.925781 5.167969 -9.945312 C 5.273438 -9.945312 5.617188 -10.066406 5.683594 -10.132812 C 5.738281 -10.167969 5.769531 -10.167969 5.824219 -10.167969 C 5.875 -10.167969 5.941406 -10.152344 5.992188 -10.132812 C 5.855469 -10.03125 5.703125 -9.925781 5.546875 -9.839844 C 5.582031 -9.824219 5.597656 -9.824219 5.632812 -9.824219 C 5.652344 -9.824219 5.683594 -9.824219 5.71875 -9.839844 C 5.789062 -9.910156 5.855469 -9.894531 5.890625 -9.960938 C 5.90625 -9.960938 5.925781 -9.960938 5.925781 -9.960938 C 5.960938 -9.960938 6.183594 -10.082031 6.183594 -10.132812 C 6.21875 -10.269531 6.164062 -10.375 6.183594 -10.527344 C 6.199219 -10.578125 6.164062 -10.632812 6.132812 -10.648438 C 6.113281 -10.664062 6.078125 -10.683594 6.0625 -10.683594 C 6.046875 -10.683594 6.027344 -10.664062 6.011719 -10.613281 C 5.960938 -10.527344 5.890625 -10.492188 5.839844 -10.492188 C 5.753906 -10.492188 5.703125 -10.425781 5.632812 -10.390625 C 5.597656 -10.339844 5.546875 -10.304688 5.496094 -10.304688 C 5.480469 -10.320312 5.460938 -10.320312 5.445312 -10.320312 C 5.394531 -10.320312 5.359375 -10.289062 5.308594 -10.289062 C 5.289062 -10.253906 5.238281 -10.21875 5.1875 -10.234375 C 5.167969 -10.234375 5.152344 -10.234375 5.136719 -10.234375 C 5.082031 -10.234375 5.050781 -10.234375 5.03125 -10.203125 C 4.996094 -10.183594 4.945312 -10.152344 4.910156 -10.152344 C 4.894531 -10.152344 4.878906 -10.167969 4.859375 -10.167969 C 4.84375 -10.203125 4.808594 -10.183594 4.773438 -10.152344 C 4.707031 -10.097656 4.621094 -10.066406 4.570312 -10.082031 C 4.550781 -10.097656 4.535156 -10.097656 4.515625 -10.097656 C 4.5 -10.097656 4.464844 -10.082031 4.449219 -10.066406 C 4.449219 -10.011719 4.328125 -9.996094 4.277344 -9.996094 C 4.242188 -9.996094 4.207031 -10.011719 4.171875 -10.03125 C 4.15625 -10.011719 4.105469 -10.011719 4.070312 -9.960938 C 4.019531 -9.910156 3.949219 -9.894531 3.863281 -9.894531 C 3.847656 -9.859375 3.8125 -9.839844 3.777344 -9.875 C 3.746094 -9.910156 3.710938 -9.859375 3.691406 -9.859375 C 3.691406 -9.839844 3.675781 -9.839844 3.660156 -9.839844 C 3.640625 -9.839844 3.605469 -9.839844 3.589844 -9.839844 C 3.574219 -9.839844 3.574219 -9.839844 3.554688 -9.839844 C 3.539062 -9.808594 3.503906 -9.808594 3.46875 -9.808594 C 3.433594 -9.808594 3.367188 -9.824219 3.316406 -9.839844 C 3.332031 -9.875 3.332031 -9.925781 3.367188 -9.925781 C 3.382812 -9.945312 3.417969 -9.960938 3.433594 -9.996094 C 3.417969 -10.011719 3.402344 -10.011719 3.382812 -10.011719 C 3.347656 -10.011719 3.296875 -9.996094 3.28125 -9.980469 C 3.261719 -9.980469 3.261719 -9.980469 3.261719 -9.945312 C 3.261719 -9.925781 3.28125 -9.894531 3.28125 -9.875 Z M 1.441406 -7.128906 L 1.167969 -6.234375 C 1.152344 -6.183594 1.167969 -6.113281 1.167969 -6.046875 C 1.203125 -6.046875 1.21875 -6.078125 1.21875 -6.113281 C 1.304688 -6.355469 1.355469 -6.613281 1.441406 -6.851562 C 1.476562 -6.957031 1.496094 -7.058594 1.496094 -7.160156 Z M 3.125 -1.734375 C 3.195312 -1.835938 3.28125 -1.921875 3.382812 -1.992188 L 3.382812 -1.855469 L 3.261719 -1.769531 C 3.230469 -1.734375 3.175781 -1.734375 3.125 -1.734375 Z M 5.167969 -10.082031 C 5.1875 -10.097656 5.203125 -10.117188 5.222656 -10.117188 C 5.253906 -10.117188 5.289062 -10.082031 5.339844 -10.066406 C 5.308594 -10.03125 5.253906 -10.03125 5.222656 -10.011719 C 5.152344 -10.011719 5.050781 -9.980469 4.964844 -9.980469 C 4.945312 -9.980469 4.945312 -9.980469 4.929688 -9.980469 C 4.996094 -10.066406 5.082031 -10.066406 5.167969 -10.082031 Z M 3.488281 -9.378906 C 3.246094 -9.378906 3.675781 -9.308594 3.675781 -9.308594 L 3.710938 -9.308594 L 3.710938 -9.359375 L 3.691406 -9.394531 C 3.625 -9.394531 3.574219 -9.394531 3.488281 -9.378906 Z M 2.042969 -9.136719 C 1.976562 -9.171875 1.90625 -9.1875 1.835938 -9.1875 C 1.785156 -9.1875 1.75 -9.1875 1.71875 -9.171875 C 1.71875 -9.152344 1.699219 -9.121094 1.699219 -9.121094 L 1.71875 -9.101562 C 1.835938 -9.101562 1.921875 -9.121094 2.042969 -9.136719 Z M 3.691406 -10.011719 C 3.746094 -9.996094 3.777344 -9.996094 3.796875 -9.996094 C 3.828125 -9.996094 3.847656 -10.011719 3.863281 -10.066406 C 3.828125 -10.082031 3.796875 -10.082031 3.777344 -10.082031 C 3.710938 -10.082031 3.640625 -10.066406 3.574219 -10.046875 C 3.574219 -10.046875 3.554688 -10.03125 3.554688 -10.011719 L 3.574219 -9.996094 C 3.589844 -9.980469 3.605469 -9.960938 3.625 -9.960938 C 3.660156 -9.960938 3.675781 -9.996094 3.691406 -10.011719 Z M 1.167969 -6.046875 C 1.082031 -5.960938 1.066406 -5.839844 1.046875 -5.71875 C 1.03125 -5.71875 1.066406 -5.703125 1.066406 -5.683594 C 1.167969 -5.789062 1.167969 -5.90625 1.167969 -6.046875 Z M 4.429688 -9.859375 C 4.398438 -9.808594 4.363281 -9.789062 4.328125 -9.789062 C 4.3125 -9.789062 4.277344 -9.808594 4.257812 -9.839844 C 4.277344 -9.875 4.3125 -9.875 4.328125 -9.875 C 4.363281 -9.875 4.378906 -9.875 4.414062 -9.859375 C 4.429688 -9.910156 4.464844 -9.925781 4.5 -9.925781 C 4.535156 -9.925781 4.550781 -9.925781 4.601562 -9.894531 C 4.550781 -9.875 4.5 -9.839844 4.464844 -9.839844 C 4.449219 -9.839844 4.449219 -9.839844 4.429688 -9.859375 Z M 4.707031 -10.289062 C 4.757812 -10.253906 4.773438 -10.253906 4.808594 -10.253906 C 4.859375 -10.253906 4.910156 -10.269531 4.980469 -10.320312 L 4.980469 -10.339844 C 4.84375 -10.339844 4.84375 -10.339844 4.707031 -10.289062 Z M 4.742188 -9.894531 C 4.707031 -9.910156 4.6875 -9.894531 4.636719 -9.894531 C 4.636719 -9.894531 4.621094 -9.894531 4.601562 -9.894531 C 4.601562 -9.925781 4.621094 -9.945312 4.636719 -9.960938 C 4.671875 -9.980469 4.707031 -9.996094 4.722656 -9.996094 C 4.757812 -10.011719 4.792969 -9.996094 4.792969 -9.980469 C 4.792969 -9.945312 4.757812 -9.910156 4.742188 -9.894531 Z M 2.628906 -9.667969 C 2.59375 -9.667969 2.578125 -9.652344 2.542969 -9.652344 C 2.507812 -9.652344 2.507812 -9.667969 2.507812 -9.703125 C 2.492188 -9.722656 2.492188 -9.753906 2.507812 -9.753906 C 2.523438 -9.753906 2.558594 -9.753906 2.578125 -9.773438 L 2.664062 -9.773438 Z M 3.074219 -11.0625 C 3.074219 -11.007812 3.058594 -10.992188 3.003906 -10.957031 L 2.988281 -10.957031 C 2.988281 -10.992188 2.972656 -11.027344 2.972656 -11.042969 C 2.972656 -11.09375 2.988281 -11.113281 3.023438 -11.113281 C 3.058594 -11.128906 3.089844 -11.09375 3.074219 -11.0625 Z M 4.054688 -10.097656 C 4.019531 -10.117188 4 -10.117188 3.96875 -10.117188 C 3.949219 -10.117188 3.914062 -10.097656 3.882812 -10.066406 C 3.914062 -10.03125 3.949219 -9.996094 3.96875 -10.011719 C 4 -10.03125 4.035156 -10.066406 4.035156 -10.097656 C 4.054688 -10.097656 4.070312 -10.082031 4.070312 -10.132812 C 4.054688 -10.117188 4.054688 -10.097656 4.054688 -10.097656 Z M 5.082031 -9.652344 C 5.136719 -9.652344 5.167969 -9.667969 5.203125 -9.667969 C 5.222656 -9.667969 5.238281 -9.722656 5.238281 -9.722656 C 5.203125 -9.738281 5.222656 -9.738281 5.203125 -9.738281 C 5.1875 -9.753906 5.152344 -9.753906 5.101562 -9.738281 C 5.082031 -9.738281 5.101562 -9.703125 5.082031 -9.652344 Z M 4.34375 -10.183594 C 4.34375 -10.152344 4.34375 -10.152344 4.363281 -10.132812 C 4.398438 -10.152344 4.449219 -10.132812 4.464844 -10.183594 C 4.449219 -10.203125 4.449219 -10.234375 4.449219 -10.234375 C 4.414062 -10.234375 4.378906 -10.234375 4.363281 -10.203125 Z M 5.289062 -9.808594 L 5.289062 -9.753906 L 5.308594 -9.738281 C 5.324219 -9.753906 5.339844 -9.738281 5.375 -9.738281 C 5.375 -9.738281 5.394531 -9.738281 5.410156 -9.753906 L 5.410156 -9.808594 Z M 4.550781 -9.550781 C 4.570312 -9.53125 4.585938 -9.53125 4.585938 -9.53125 C 4.621094 -9.53125 4.6875 -9.566406 4.757812 -9.582031 C 4.757812 -9.582031 4.757812 -9.617188 4.742188 -9.601562 C 4.707031 -9.617188 4.636719 -9.582031 4.585938 -9.566406 Z M 3.863281 -9.703125 C 3.882812 -9.753906 3.898438 -9.789062 3.914062 -9.789062 C 3.914062 -9.789062 3.933594 -9.773438 3.949219 -9.738281 C 3.96875 -9.722656 3.96875 -9.722656 3.96875 -9.703125 C 3.914062 -9.667969 3.898438 -9.6875 3.863281 -9.703125 Z M 3.519531 -1.804688 C 3.503906 -1.804688 3.488281 -1.804688 3.46875 -1.804688 C 3.433594 -1.804688 3.402344 -1.804688 3.382812 -1.871094 C 3.433594 -1.871094 3.503906 -1.871094 3.519531 -1.804688 Z M 1.890625 -9.636719 C 1.871094 -9.636719 1.855469 -9.617188 1.820312 -9.617188 C 1.785156 -9.601562 1.769531 -9.617188 1.769531 -9.636719 C 1.785156 -9.652344 1.804688 -9.6875 1.820312 -9.6875 C 1.855469 -9.6875 1.871094 -9.667969 1.890625 -9.636719 Z M 4.363281 -9.496094 C 4.328125 -9.480469 4.277344 -9.515625 4.257812 -9.53125 C 4.242188 -9.53125 4.207031 -9.53125 4.242188 -9.496094 C 4.242188 -9.480469 4.257812 -9.445312 4.277344 -9.464844 C 4.292969 -9.464844 4.328125 -9.429688 4.363281 -9.496094 Z M 5.339844 -10.066406 C 5.359375 -10.097656 5.375 -10.132812 5.410156 -10.132812 C 5.425781 -10.132812 5.425781 -10.132812 5.445312 -10.117188 C 5.425781 -10.066406 5.410156 -10.046875 5.394531 -10.046875 C 5.375 -10.046875 5.359375 -10.066406 5.339844 -10.066406 Z M 2.234375 -9.667969 C 2.285156 -9.703125 2.320312 -9.722656 2.351562 -9.722656 L 2.320312 -9.667969 C 2.300781 -9.652344 2.265625 -9.652344 2.234375 -9.636719 Z M 3.882812 -9.429688 C 3.847656 -9.429688 3.8125 -9.429688 3.796875 -9.394531 L 3.796875 -9.378906 C 3.8125 -9.34375 3.828125 -9.324219 3.828125 -9.378906 C 3.863281 -9.378906 3.863281 -9.378906 3.882812 -9.410156 Z M 4.070312 -9.824219 C 4.085938 -9.824219 4.085938 -9.753906 4.085938 -9.753906 L 4.085938 -9.738281 L 4.035156 -9.738281 L 4.035156 -9.808594 C 4.035156 -9.824219 4.035156 -9.824219 4.054688 -9.824219 Z M 1.410156 -9.1875 C 1.410156 -9.222656 1.425781 -9.222656 1.441406 -9.222656 C 1.460938 -9.222656 1.476562 -9.207031 1.511719 -9.1875 C 1.496094 -9.171875 1.476562 -9.152344 1.460938 -9.152344 C 1.441406 -9.152344 1.425781 -9.171875 1.410156 -9.1875 Z M 4.191406 -9.824219 C 4.207031 -9.859375 4.242188 -9.839844 4.257812 -9.839844 C 4.242188 -9.789062 4.242188 -9.773438 4.226562 -9.773438 C 4.226562 -9.773438 4.207031 -9.789062 4.191406 -9.824219 Z M 3.605469 -9.652344 C 3.605469 -9.636719 3.574219 -9.636719 3.554688 -9.617188 L 3.539062 -9.636719 L 3.539062 -9.667969 C 3.574219 -9.703125 3.589844 -9.6875 3.605469 -9.652344 Z M 0.0859375 -0.925781 L 0.0507812 -0.894531 C 0.0507812 -0.910156 0.0351562 -0.925781 0.0351562 -0.945312 L 0.0859375 -0.996094 Z M 3.453125 -2.0625 C 3.453125 -2.09375 3.488281 -2.128906 3.519531 -2.128906 C 3.519531 -2.09375 3.488281 -2.0625 3.453125 -2.0625 Z M 1.324219 -9.207031 C 1.339844 -9.222656 1.355469 -9.207031 1.410156 -9.1875 L 1.390625 -9.1875 C 1.375 -9.171875 1.355469 -9.171875 1.324219 -9.171875 Z M 3.058594 -1.664062 C 3.058594 -1.699219 3.089844 -1.71875 3.125 -1.734375 C 3.125 -1.699219 3.089844 -1.664062 3.058594 -1.664062 Z M 1.941406 -0.15625 C 1.976562 -0.15625 1.992188 -0.15625 1.992188 -0.207031 L 1.941406 -0.207031 Z M 4.429688 -9.496094 C 4.449219 -9.53125 4.449219 -9.550781 4.449219 -9.550781 C 4.449219 -9.566406 4.449219 -9.550781 4.429688 -9.550781 C 4.414062 -9.550781 4.429688 -9.496094 4.429688 -9.496094 Z M 3.847656 -2.386719 C 3.8125 -2.386719 3.796875 -2.351562 3.777344 -2.320312 C 3.8125 -2.335938 3.847656 -2.351562 3.847656 -2.386719 Z M 3.382812 -1.992188 C 3.402344 -2.027344 3.417969 -2.0625 3.453125 -2.0625 C 3.453125 -2.027344 3.417969 -2.007812 3.382812 -1.992188 Z M 3.726562 -2.265625 C 3.761719 -2.265625 3.777344 -2.285156 3.777344 -2.320312 Z M 5.445312 -10.117188 C 5.480469 -10.167969 5.496094 -10.167969 5.511719 -10.117188 L 5.511719 -10.132812 C 5.496094 -10.097656 5.480469 -10.117188 5.445312 -10.117188 Z M 5.050781 -10.339844 C 5.03125 -10.355469 4.996094 -10.375 4.980469 -10.339844 C 4.996094 -10.320312 5.03125 -10.304688 5.050781 -10.339844 Z M 4.429688 -9.496094 C 4.398438 -9.515625 4.363281 -9.550781 4.363281 -9.496094 C 4.378906 -9.496094 4.398438 -9.464844 4.429688 -9.496094 Z M 3.210938 -9.566406 C 3.230469 -9.582031 3.246094 -9.617188 3.261719 -9.601562 C 3.261719 -9.617188 3.261719 -9.601562 3.28125 -9.582031 L 3.261719 -9.566406 C 3.246094 -9.582031 3.230469 -9.550781 3.210938 -9.566406 Z M 3.914062 -2.457031 C 3.882812 -2.457031 3.863281 -2.421875 3.847656 -2.386719 C 3.882812 -2.40625 3.898438 -2.421875 3.914062 -2.457031 Z M 1.511719 -9.1875 C 1.511719 -9.238281 1.546875 -9.222656 1.5625 -9.207031 C 1.546875 -9.171875 1.527344 -9.1875 1.511719 -9.1875 Z M 1.21875 -9.1875 C 1.203125 -9.1875 1.21875 -9.152344 1.21875 -9.152344 L 1.183594 -9.152344 C 1.183594 -9.171875 1.183594 -9.207031 1.203125 -9.1875 Z M 5.566406 -10.167969 C 5.546875 -10.132812 5.53125 -10.117188 5.53125 -10.117188 C 5.53125 -10.167969 5.53125 -10.167969 5.566406 -10.167969 Z M 5.050781 -10.339844 C 5.066406 -10.339844 5.082031 -10.320312 5.101562 -10.320312 L 5.101562 -10.339844 C 5.101562 -10.339844 5.101562 -10.355469 5.082031 -10.355469 C 5.082031 -10.355469 5.066406 -10.355469 5.050781 -10.339844 Z M 4.171875 -9.738281 C 4.15625 -9.808594 4.171875 -9.789062 4.191406 -9.808594 C 4.191406 -9.753906 4.171875 -9.738281 4.171875 -9.738281 Z M 5.308594 -10.441406 C 5.308594 -10.425781 5.339844 -10.390625 5.359375 -10.425781 C 5.339844 -10.441406 5.339844 -10.441406 5.308594 -10.441406 Z M 2.695312 -1.289062 C 2.664062 -1.324219 2.695312 -1.324219 2.714844 -1.324219 C 2.714844 -1.304688 2.714844 -1.304688 2.695312 -1.289062 Z M 3.023438 -1.613281 C 2.988281 -1.648438 3.023438 -1.648438 3.039062 -1.648438 C 3.039062 -1.632812 3.039062 -1.632812 3.023438 -1.613281 Z M 2.042969 -0.242188 C 2.027344 -0.242188 2.007812 -0.257812 2.007812 -0.257812 L 2.007812 -0.222656 C 2.007812 -0.242188 2.027344 -0.242188 2.042969 -0.242188 Z M 6.027344 -10.132812 C 6.011719 -10.152344 6.011719 -10.167969 6.027344 -10.152344 Z M 1.253906 -9.207031 C 1.253906 -9.171875 1.238281 -9.171875 1.21875 -9.171875 C 1.21875 -9.1875 1.21875 -9.207031 1.253906 -9.207031 Z M 0.121094 -1.046875 C 0.15625 -1.011719 0.101562 -1.011719 0.0859375 -1.011719 C 0.101562 -1.011719 0.101562 -1.03125 0.121094 -1.046875 Z M 3.46875 -10.011719 C 3.46875 -10.011719 3.453125 -10.011719 3.433594 -9.996094 L 3.488281 -9.996094 C 3.46875 -9.996094 3.46875 -10.03125 3.46875 -10.011719 Z M 3.761719 -9.667969 C 3.761719 -9.667969 3.746094 -9.667969 3.726562 -9.6875 C 3.746094 -9.6875 3.761719 -9.6875 3.761719 -9.667969 Z M 5.082031 -9.652344 C 5.082031 -9.667969 5.066406 -9.667969 5.050781 -9.652344 L 5.03125 -9.652344 C 5.050781 -9.652344 5.050781 -9.636719 5.050781 -9.636719 Z M 4.515625 -3.109375 C 4.484375 -3.109375 4.5 -3.109375 4.5 -3.125 L 4.515625 -3.125 Z M 3.691406 -9.496094 C 3.691406 -9.496094 3.675781 -9.496094 3.675781 -9.515625 L 3.675781 -9.480469 C 3.691406 -9.464844 3.691406 -9.480469 3.691406 -9.496094 Z M 4.035156 -9.410156 C 4.035156 -9.429688 4.035156 -9.429688 4.019531 -9.429688 L 4.035156 -9.394531 C 4.035156 -9.394531 4.035156 -9.410156 4.035156 -9.410156 Z M 2.746094 -1.375 C 2.78125 -1.339844 2.746094 -1.339844 2.730469 -1.339844 C 2.746094 -1.355469 2.746094 -1.355469 2.746094 -1.375 Z M 1.648438 -9.136719 C 1.632812 -9.136719 1.632812 -9.136719 1.632812 -9.101562 C 1.632812 -9.101562 1.648438 -9.101562 1.648438 -9.136719 Z M 5.238281 -10.390625 C 5.238281 -10.390625 5.1875 -10.425781 5.222656 -10.375 Z M 2.007812 -0.207031 L 1.992188 -0.207031 L 1.992188 -0.222656 Z M 4.535156 -3.160156 C 4.535156 -3.144531 4.535156 -3.125 4.515625 -3.125 C 4.535156 -3.125 4.550781 -3.125 4.535156 -3.160156 Z M 4.484375 -3.109375 C 4.464844 -3.109375 4.449219 -3.109375 4.484375 -3.074219 Z M 4.171875 -10.117188 L 4.171875 -10.082031 Z M 4.894531 -9.960938 C 4.894531 -9.980469 4.910156 -9.960938 4.910156 -9.960938 Z M 3.726562 -2.25 L 3.710938 -2.25 L 3.710938 -2.265625 Z M 2.007812 -0.257812 C 1.992188 -0.257812 1.992188 -0.273438 1.992188 -0.273438 Z M 5.53125 -9.824219 C 5.53125 -9.824219 5.546875 -9.824219 5.546875 -9.839844 C 5.546875 -9.839844 5.53125 -9.875 5.53125 -9.824219 Z M 5.238281 -10.390625 C 5.238281 -10.40625 5.253906 -10.375 5.238281 -10.425781 Z M 2.9375 -10.820312 L 2.917969 -10.835938 Z M 3.640625 -2.265625 C 3.660156 -2.25 3.640625 -2.25 3.640625 -2.25 Z M 3.863281 -10.066406 C 3.863281 -10.066406 3.882812 -10.066406 3.882812 -10.082031 Z M 2.578125 -1.167969 L 2.558594 -1.152344 Z M 3.710938 -2.320312 L 3.726562 -2.335938 Z M 1.941406 -0.15625 L 1.941406 -0.136719 Z M 3.195312 -9.566406 C 3.195312 -9.550781 3.210938 -9.550781 3.210938 -9.566406 Z M 3.195312 -9.566406 "/></g></g></g><g fill="#21d4fd" fill-opacity="1"><g transform="translate(59.429155, 37.694575)"><g><path d="M 1.304688 -4.550781 C 1.253906 -4.398438 1.082031 -4.34375 1.03125 -4.191406 C 1.03125 -4.171875 0.996094 -4.171875 0.980469 -4.15625 C 0.980469 -4.15625 0.960938 -4.15625 0.945312 -4.140625 C 0.859375 -4.140625 0.839844 -4.085938 0.839844 -4.019531 C 0.839844 -3.914062 0.808594 -3.847656 0.722656 -3.8125 C 0.636719 -3.796875 0.582031 -3.726562 0.550781 -3.675781 C 0.53125 -3.640625 0.53125 -3.589844 0.515625 -3.554688 C 0.5 -3.539062 0.480469 -3.519531 0.464844 -3.519531 C 0.480469 -3.503906 0.5 -3.503906 0.515625 -3.488281 C 0.464844 -3.367188 0.429688 -3.246094 0.378906 -3.125 C 0.222656 -2.851562 0.171875 -2.523438 0 -2.25 L 0 -2.234375 C -0.0351562 -2.113281 -0.0507812 -2.007812 -0.0859375 -1.90625 C -0.101562 -1.804688 -0.121094 -1.683594 -0.15625 -1.597656 C -0.207031 -1.476562 -0.171875 -1.375 -0.1875 -1.269531 C -0.222656 -1.132812 -0.242188 -0.960938 -0.1875 -0.824219 C -0.136719 -0.617188 -0.121094 -0.394531 0.0351562 -0.222656 C 0.121094 0.0351562 0.550781 0.464844 0.839844 0.464844 C 0.945312 0.464844 1.046875 0.480469 1.152344 0.480469 C 1.304688 0.480469 1.460938 0.464844 1.613281 0.359375 C 1.664062 0.328125 1.734375 0.308594 1.804688 0.292969 C 2.007812 0.222656 2.214844 0.121094 2.40625 -0.015625 C 2.609375 -0.171875 2.832031 -0.308594 3.039062 -0.464844 C 3.210938 -0.601562 3.417969 -0.703125 3.539062 -0.875 C 3.625 -0.980469 3.710938 -1.046875 3.796875 -1.132812 L 4 -1.339844 C 4.070312 -1.410156 4.121094 -1.476562 4.105469 -1.5625 C 4.105469 -1.683594 4.277344 -1.664062 4.277344 -1.769531 L 4.277344 -1.785156 C 4.34375 -1.835938 4.398438 -1.90625 4.464844 -1.957031 C 4.636719 -2.113281 4.773438 -2.320312 4.964844 -2.457031 C 4.996094 -2.492188 4.996094 -2.542969 5.03125 -2.578125 C 5.359375 -2.988281 5.617188 -3.640625 5.546875 -3.660156 C 5.546875 -3.675781 5.546875 -3.675781 5.53125 -3.675781 L 5.53125 -3.660156 C 5.511719 -3.640625 5.496094 -3.625 5.480469 -3.605469 L 5.460938 -3.605469 L 5.460938 -3.589844 C 5.425781 -3.539062 5.394531 -3.488281 5.339844 -3.417969 C 5.324219 -3.382812 5.308594 -3.367188 5.289062 -3.332031 L 5.289062 -3.28125 C 5.238281 -3.230469 5.167969 -3.144531 5.117188 -3.074219 C 4.945312 -2.851562 4.792969 -2.664062 4.621094 -2.4375 C 4.5 -2.371094 4.34375 -2.214844 4.277344 -2.09375 C 4.226562 -2.007812 4.15625 -1.941406 4.070312 -1.890625 C 3.882812 -1.75 3.726562 -1.5625 3.539062 -1.410156 C 3.332031 -1.132812 2.664062 -0.753906 2.371094 -0.601562 C 2.371094 -0.582031 2.351562 -0.601562 2.335938 -0.601562 C 2.320312 -0.617188 2.320312 -0.636719 2.335938 -0.652344 C 2.371094 -0.6875 2.386719 -0.722656 2.40625 -0.773438 C 2.421875 -0.773438 2.421875 -0.773438 2.4375 -0.789062 C 2.457031 -0.789062 2.492188 -0.773438 2.523438 -0.789062 C 2.609375 -0.839844 2.695312 -0.910156 2.78125 -0.960938 C 2.800781 -0.980469 2.800781 -1.011719 2.816406 -1.046875 C 2.9375 -1.03125 2.988281 -1.117188 3.058594 -1.183594 L 3.058594 -1.21875 C 3.039062 -1.21875 3.003906 -1.238281 3.003906 -1.21875 C 2.9375 -1.167969 2.851562 -1.132812 2.816406 -1.046875 C 2.644531 -1.011719 2.523438 -0.945312 2.4375 -0.789062 C 2.371094 -0.773438 2.335938 -0.773438 2.300781 -0.753906 C 2.09375 -0.652344 1.871094 -0.53125 1.664062 -0.429688 C 1.546875 -0.378906 1.425781 -0.308594 1.289062 -0.292969 C 1.097656 -0.242188 0.925781 -0.1875 0.722656 -0.1875 C 0.414062 -0.257812 0.242188 -0.582031 0.242188 -0.894531 C 0.257812 -0.980469 0.257812 -1.046875 0.242188 -1.132812 C 0.222656 -1.527344 0.378906 -1.855469 0.550781 -2.214844 C 0.636719 -2.027344 0.789062 -1.90625 0.996094 -1.90625 C 1.304688 -2.007812 1.632812 -2.09375 1.921875 -2.265625 C 2.164062 -2.421875 2.40625 -2.542969 2.644531 -2.664062 C 2.746094 -2.730469 2.832031 -2.78125 2.886719 -2.886719 C 2.9375 -2.972656 3.003906 -3.039062 3.089844 -3.089844 C 3.316406 -3.246094 3.746094 -3.746094 3.746094 -4.035156 C 3.777344 -4.242188 3.777344 -4.464844 3.8125 -4.671875 C 3.828125 -4.910156 3.828125 -5.167969 3.746094 -5.410156 L 3.691406 -5.566406 C 3.503906 -5.789062 3.332031 -5.890625 3.039062 -5.890625 C 2.972656 -5.890625 2.886719 -5.890625 2.78125 -5.855469 C 2.542969 -5.789062 2.351562 -5.617188 2.148438 -5.480469 C 2.027344 -5.394531 1.921875 -5.289062 1.820312 -5.203125 C 1.769531 -5.050781 1.613281 -5.015625 1.511719 -4.910156 C 1.476562 -4.859375 1.441406 -4.808594 1.425781 -4.742188 C 1.410156 -4.671875 1.375 -4.621094 1.304688 -4.601562 Z M 3.503906 -5.410156 C 3.554688 -5.308594 3.625 -5.203125 3.605469 -5.082031 L 3.605469 -4.910156 C 3.605469 -3.625 2.113281 -2.746094 0.996094 -2.40625 C 0.894531 -2.386719 0.789062 -2.371094 0.6875 -2.371094 C 0.601562 -2.371094 0.566406 -2.40625 0.636719 -2.542969 C 0.722656 -2.679688 0.738281 -2.851562 0.859375 -2.953125 C 0.910156 -3.003906 0.910156 -3.089844 0.945312 -3.144531 C 1.011719 -3.210938 1.03125 -3.332031 1.082031 -3.417969 C 1.21875 -3.605469 1.375 -3.796875 1.511719 -3.96875 C 1.546875 -4.019531 1.582031 -4.054688 1.632812 -4.085938 C 1.820312 -4.226562 1.992188 -4.398438 2.164062 -4.570312 C 2.300781 -4.707031 2.457031 -4.859375 2.628906 -4.980469 C 2.851562 -5.117188 3.058594 -5.324219 3.28125 -5.460938 C 3.316406 -5.480469 3.347656 -5.496094 3.382812 -5.496094 C 3.433594 -5.496094 3.46875 -5.480469 3.503906 -5.410156 Z M 0.582031 -3.554688 C 0.582031 -3.503906 0.550781 -3.488281 0.515625 -3.488281 L 0.515625 -3.554688 Z M 0.667969 -3.625 C 0.667969 -3.640625 0.6875 -3.660156 0.703125 -3.675781 C 0.703125 -3.675781 0.738281 -3.660156 0.753906 -3.660156 C 0.738281 -3.640625 0.738281 -3.640625 0.738281 -3.625 Z M 5.273438 -3.210938 C 5.253906 -3.210938 5.253906 -3.230469 5.253906 -3.230469 C 5.273438 -3.230469 5.273438 -3.210938 5.273438 -3.210938 Z M 0.925781 -4.242188 L 0.945312 -4.226562 L 0.945312 -4.242188 Z M 0.925781 -3.984375 L 0.945312 -3.984375 L 0.945312 -3.96875 Z M 5.289062 -3.261719 C 5.308594 -3.261719 5.324219 -3.246094 5.324219 -3.246094 C 5.308594 -3.246094 5.308594 -3.261719 5.289062 -3.261719 Z M 0.667969 -3.625 C 0.652344 -3.625 0.652344 -3.605469 0.652344 -3.605469 C 0.652344 -3.605469 0.652344 -3.605469 0.652344 -3.625 Z M 0.667969 -3.625 "/></g></g></g><g fill="#21d4fd" fill-opacity="1"><g transform="translate(64.453511, 37.694575)"><g/></g></g><g fill="#00ff00" fill-opacity="1"><g transform="translate(30.858571, 46.999998)"><g><path d="M 2.390625 0 L 0.90625 0 L 0.90625 -7.140625 L 4.984375 -7.140625 L 4.984375 -5.90625 L 2.390625 -5.90625 L 2.390625 -4.0625 L 4.8125 -4.0625 L 4.8125 -2.828125 L 2.390625 -2.828125 Z M 2.390625 0 "/></g></g></g><g fill="#00ff00" fill-opacity="1"><g transform="translate(36.344708, 46.999998)"><g><path d="M 1.96875 -2.734375 C 1.96875 -2.191406 2.054688 -1.78125 2.234375 -1.5 C 2.410156 -1.226562 2.695312 -1.09375 3.09375 -1.09375 C 3.5 -1.09375 3.785156 -1.226562 3.953125 -1.5 C 4.128906 -1.78125 4.21875 -2.191406 4.21875 -2.734375 C 4.21875 -3.273438 4.128906 -3.679688 3.953125 -3.953125 C 3.773438 -4.222656 3.488281 -4.359375 3.09375 -4.359375 C 2.695312 -4.359375 2.410156 -4.222656 2.234375 -3.953125 C 2.054688 -3.691406 1.96875 -3.285156 1.96875 -2.734375 Z M 5.75 -2.734375 C 5.75 -1.847656 5.515625 -1.15625 5.046875 -0.65625 C 4.578125 -0.15625 3.921875 0.09375 3.078125 0.09375 C 2.554688 0.09375 2.09375 -0.0195312 1.6875 -0.25 C 1.289062 -0.476562 0.984375 -0.804688 0.765625 -1.234375 C 0.554688 -1.660156 0.453125 -2.160156 0.453125 -2.734375 C 0.453125 -3.628906 0.679688 -4.320312 1.140625 -4.8125 C 1.609375 -5.3125 2.265625 -5.5625 3.109375 -5.5625 C 3.628906 -5.5625 4.085938 -5.445312 4.484375 -5.21875 C 4.890625 -4.988281 5.203125 -4.660156 5.421875 -4.234375 C 5.640625 -3.804688 5.75 -3.304688 5.75 -2.734375 Z M 5.75 -2.734375 "/></g></g></g><g fill="#00ff00" fill-opacity="1"><g transform="translate(42.533696, 46.999998)"><g><path d="M 1.96875 -2.734375 C 1.96875 -2.191406 2.054688 -1.78125 2.234375 -1.5 C 2.410156 -1.226562 2.695312 -1.09375 3.09375 -1.09375 C 3.5 -1.09375 3.785156 -1.226562 3.953125 -1.5 C 4.128906 -1.78125 4.21875 -2.191406 4.21875 -2.734375 C 4.21875 -3.273438 4.128906 -3.679688 3.953125 -3.953125 C 3.773438 -4.222656 3.488281 -4.359375 3.09375 -4.359375 C 2.695312 -4.359375 2.410156 -4.222656 2.234375 -3.953125 C 2.054688 -3.691406 1.96875 -3.285156 1.96875 -2.734375 Z M 5.75 -2.734375 C 5.75 -1.847656 5.515625 -1.15625 5.046875 -0.65625 C 4.578125 -0.15625 3.921875 0.09375 3.078125 0.09375 C 2.554688 0.09375 2.09375 -0.0195312 1.6875 -0.25 C 1.289062 -0.476562 0.984375 -0.804688 0.765625 -1.234375 C 0.554688 -1.660156 0.453125 -2.160156 0.453125 -2.734375 C 0.453125 -3.628906 0.679688 -4.320312 1.140625 -4.8125 C 1.609375 -5.3125 2.265625 -5.5625 3.109375 -5.5625 C 3.628906 -5.5625 4.085938 -5.445312 4.484375 -5.21875 C 4.890625 -4.988281 5.203125 -4.660156 5.421875 -4.234375 C 5.640625 -3.804688 5.75 -3.304688 5.75 -2.734375 Z M 5.75 -2.734375 "/></g></g></g><g fill="#00ff00" fill-opacity="1"><g transform="translate(48.722683, 46.999998)"><g><path d="M 2.515625 0.09375 C 1.867188 0.09375 1.363281 -0.148438 1 -0.640625 C 0.632812 -1.140625 0.453125 -1.832031 0.453125 -2.71875 C 0.453125 -3.613281 0.632812 -4.3125 1 -4.8125 C 1.375 -5.3125 1.890625 -5.5625 2.546875 -5.5625 C 3.234375 -5.5625 3.757812 -5.296875 4.125 -4.765625 L 4.171875 -4.765625 C 4.097656 -5.171875 4.0625 -5.53125 4.0625 -5.84375 L 4.0625 -7.59375 L 5.546875 -7.59375 L 5.546875 0 L 4.40625 0 L 4.125 -0.703125 L 4.0625 -0.703125 C 3.71875 -0.171875 3.203125 0.09375 2.515625 0.09375 Z M 3.03125 -1.09375 C 3.414062 -1.09375 3.695312 -1.203125 3.875 -1.421875 C 4.050781 -1.640625 4.144531 -2.015625 4.15625 -2.546875 L 4.15625 -2.703125 C 4.15625 -3.296875 4.066406 -3.71875 3.890625 -3.96875 C 3.710938 -4.21875 3.421875 -4.34375 3.015625 -4.34375 C 2.679688 -4.34375 2.421875 -4.203125 2.234375 -3.921875 C 2.046875 -3.640625 1.953125 -3.234375 1.953125 -2.703125 C 1.953125 -2.160156 2.046875 -1.753906 2.234375 -1.484375 C 2.421875 -1.222656 2.6875 -1.09375 3.03125 -1.09375 Z M 3.03125 -1.09375 "/></g></g></g><g fill="#00ff00" fill-opacity="1"><g transform="translate(55.048335, 46.999998)"><g><path d="M 1.984375 -7.140625 L 2.046875 -7.03125 C 1.890625 -6.382812 1.601562 -5.601562 1.1875 -4.6875 L 0.125 -4.6875 C 0.34375 -5.65625 0.503906 -6.472656 0.609375 -7.140625 Z M 1.984375 -7.140625 "/></g></g></g><g fill="#00ff00" fill-opacity="1"><g transform="translate(57.215457, 46.999998)"><g><path d="M 4.59375 -1.625 C 4.59375 -1.0625 4.394531 -0.632812 4 -0.34375 C 3.613281 -0.0507812 3.035156 0.09375 2.265625 0.09375 C 1.867188 0.09375 1.53125 0.0664062 1.25 0.015625 C 0.96875 -0.0351562 0.703125 -0.113281 0.453125 -0.21875 L 0.453125 -1.453125 C 0.734375 -1.316406 1.046875 -1.203125 1.390625 -1.109375 C 1.742188 -1.023438 2.050781 -0.984375 2.3125 -0.984375 C 2.851562 -0.984375 3.125 -1.140625 3.125 -1.453125 C 3.125 -1.578125 3.085938 -1.675781 3.015625 -1.75 C 2.941406 -1.820312 2.816406 -1.90625 2.640625 -2 C 2.460938 -2.09375 2.226562 -2.195312 1.9375 -2.3125 C 1.519531 -2.488281 1.210938 -2.648438 1.015625 -2.796875 C 0.816406 -2.953125 0.671875 -3.125 0.578125 -3.3125 C 0.492188 -3.507812 0.453125 -3.75 0.453125 -4.03125 C 0.453125 -4.519531 0.640625 -4.894531 1.015625 -5.15625 C 1.390625 -5.425781 1.921875 -5.5625 2.609375 -5.5625 C 3.265625 -5.5625 3.90625 -5.414062 4.53125 -5.125 L 4.078125 -4.0625 C 3.804688 -4.175781 3.550781 -4.269531 3.3125 -4.34375 C 3.070312 -4.414062 2.832031 -4.453125 2.59375 -4.453125 C 2.144531 -4.453125 1.921875 -4.335938 1.921875 -4.109375 C 1.921875 -3.972656 1.992188 -3.851562 2.140625 -3.75 C 2.285156 -3.65625 2.597656 -3.515625 3.078125 -3.328125 C 3.503906 -3.148438 3.816406 -2.984375 4.015625 -2.828125 C 4.210938 -2.679688 4.359375 -2.507812 4.453125 -2.3125 C 4.546875 -2.125 4.59375 -1.894531 4.59375 -1.625 Z M 4.59375 -1.625 "/></g></g></g></svg>